<?xml version="1.0" encoding="utf-8"?>
<!-- Generator: Adobe Illustrator 21.0.2, SVG Export Plug-In . SVG Version: 6.00 Build 0)  -->
<svg version="1.1" id="Шар_1" xmlns="http://www.w3.org/2000/svg" xmlns:xlink="http://www.w3.org/1999/xlink" x="0px" y="0px"
	 viewBox="0 0 21.8 25.7" enable-background="new 0 0 21.8 25.7" xml:space="preserve">
<g>
	<g>
		<defs>
			<rect id="SVGID_1_" width="21.8" height="25.7"/>
		</defs>
		<clipPath id="SVGID_2_">
			<use xlink:href="#SVGID_1_"  overflow="visible"/>
		</clipPath>
		<path clip-path="url(#SVGID_2_)" d="M10.8,13.8H11c1.6,0,2.8-0.6,3.7-1.6c2-2.3,1.7-6.2,1.7-6.6c-0.1-2.8-1.5-4.2-2.6-4.8
			C13,0.3,12,0.1,10.9,0h-0.1C10.3,0,9.1,0.1,8,0.8c-1.1,0.6-2.5,2-2.6,4.8C5.4,6,5,9.9,7.1,12.2C8,13.2,9.2,13.8,10.8,13.8
			L10.8,13.8z M6.8,5.7C6.8,5.7,6.8,5.7,6.8,5.7c0.2-3.8,2.9-4.2,4-4.2h0.1c1.4,0,3.9,0.6,4,4.2c0,0,0,0,0,0c0,0,0.4,3.6-1.3,5.5
			c-0.7,0.8-1.6,1.1-2.7,1.1h-0.1c-1.2,0-2.1-0.4-2.7-1.1C6.4,9.4,6.8,5.8,6.8,5.7L6.8,5.7z M6.8,5.7"/>
		<path clip-path="url(#SVGID_2_)" d="M21.8,20.4L21.8,20.4c0-0.1,0-0.1,0-0.1c0-1-0.1-3.5-2.4-4.3c0,0,0,0-0.1,0
			c-2.4-0.6-4.4-2-4.4-2c-0.3-0.2-0.8-0.1-1,0.2c-0.2,0.3-0.1,0.8,0.2,1c0.1,0.1,2.2,1.5,4.8,2.2c1.2,0.4,1.4,1.8,1.4,3
			c0,0,0,0.1,0,0.1c0,0.5,0,1.2-0.1,1.6c-0.9,0.5-4.2,2.2-9.3,2.2c-5.1,0-8.5-1.7-9.3-2.2c-0.1-0.4-0.1-1.2-0.1-1.6c0,0,0-0.1,0-0.1
			c0-1.2,0.2-2.5,1.4-3c2.6-0.7,4.7-2.2,4.8-2.2c0.3-0.2,0.4-0.7,0.2-1c-0.2-0.3-0.7-0.4-1-0.2c0,0-2,1.4-4.4,2c0,0,0,0-0.1,0
			C0.1,16.7,0,19.2,0,20.2c0,0,0,0.1,0,0.1v0c0,0.3,0,1.7,0.3,2.4c0.1,0.1,0.1,0.3,0.3,0.3c0.2,0.1,4,2.5,10.3,2.5
			s10.2-2.4,10.3-2.5c0.1-0.1,0.2-0.2,0.3-0.3C21.8,22,21.8,20.6,21.8,20.4L21.8,20.4z M21.8,20.4"/>
	</g>
</g>
</svg>
