<?xml version="1.0" encoding="iso-8859-1"?>
<!-- Generator: Adobe Illustrator 21.0.2, SVG Export Plug-In . SVG Version: 6.00 Build 0)  -->
<svg version="1.1" id="&#x420;&#x435;&#x436;&#x438;&#x43C;_&#x456;&#x437;&#x43E;&#x43B;&#x44F;&#x446;&#x456;&#x457;"
	 xmlns="http://www.w3.org/2000/svg" xmlns:xlink="http://www.w3.org/1999/xlink" x="0px" y="0px" viewBox="0 0 275.199 275.199"
	 enable-background="new 0 0 275.199 275.199" xml:space="preserve">
<path fill="#2C2F33" d="M38.719,233.199c25.043,25.84,60.082,42,98.883,42c75.839,0,137.597-61.758,137.597-137.597
	C275.199,61.762,213.441,0,137.602,0C61.762,0,0,61.762,0,137.602c0,36.16,14.078,69.117,36.961,93.679
	C37.441,232.078,38.078,232.642,38.719,233.199L38.719,233.199z M137.602,259.359c-29.922,0-57.442-10.879-78.641-28.879
	c35.68-11.839,48.879-26.242,53.758-35.839c6.801,2.961,14.402,4.558,22.801,4.64h1.839c9.122-0.16,17.36-2,24.481-5.441
	c4.559,9.601,17.52,24.48,54.238,36.64C194.961,248.481,167.519,259.359,137.602,259.359L137.602,259.359z M93.121,112.16v-0.48
	c1.918-41.68,32.641-44.961,42.078-44.961h2.563c9.359,0,40.16,3.281,42.078,44.961v0.48c0.082,0.399,4,38.961-14,59.199
	c-7.121,8-16.641,12-29.039,12.082h-0.481c-12.48-0.16-21.922-4.082-29.039-12.082C89.199,151.281,93.039,112.559,93.121,112.16
	L93.121,112.16z M137.602,15.84c67.117,0,121.757,54.64,121.757,121.762c0,30.718-11.52,58.878-30.32,80.32
	c-51.68-15.043-53.68-33.281-53.68-33.523v0.403h-0.559c0.961-0.961,1.918-1.922,2.879-2.961c22-24.719,18.32-67.039,17.922-71.199
	c-2.16-44.161-32.48-59.84-57.839-59.84h-2.563c-25.359,0-55.758,15.679-57.84,59.84c-0.398,4.078-4,46.398,17.922,71.199
	c1.278,1.441,2.641,2.801,4,4.082c-1.679,4.637-10.16,19.359-53.121,31.917c-18.879-21.441-30.32-49.52-30.32-80.238
	C15.84,70.481,70.48,15.84,137.602,15.84L137.602,15.84z M137.602,15.84"/>
</svg>
