<?xml version="1.0" encoding="iso-8859-1"?>
<!-- Generator: Adobe Illustrator 21.0.2, SVG Export Plug-In . SVG Version: 6.00 Build 0)  -->
<svg version="1.1" id="&#x428;&#x430;&#x440;_1" xmlns="http://www.w3.org/2000/svg" xmlns:xlink="http://www.w3.org/1999/xlink"
	 x="0px" y="0px" viewBox="0 0 29.551 25.982" enable-background="new 0 0 29.551 25.982" xml:space="preserve">
<g>
	<g>
		<defs>
			<rect id="SVGID_1_" width="29.551" height="25.982"/>
		</defs>
		<clipPath id="SVGID_2_">
			<use xlink:href="#SVGID_1_"  overflow="visible"/>
		</clipPath>
		<path clip-path="url(#SVGID_2_)" d="M29.423,23.896l-1.169-4.063c-0.027-0.083-0.083-0.167-0.14-0.223
			c-0.723-2.198-2.504-3.896-4.758-4.48l-0.334-0.056c-0.501-0.139-1.058,0.028-1.419,0.445c-1.225,1.391-2.782,1.502-4.424,1.502
			c-1.643,0-3.2-0.111-4.425-1.502c-0.362-0.418-0.918-0.585-1.419-0.445l-0.334,0.083c-1.697,0.445-3.145,1.53-4.063,2.977H3.433
			c-0.027,0-0.027,0-0.056-0.028c0-0.028-0.027-0.056-0.027-0.111l0.724-2.587c0.64-2.031,1.864-2.644,4.257-3.256
			c0.111-0.028,0.195-0.083,0.251-0.139c0.194,0.167,0.417,0.306,0.64,0.417c0.084,0.056,0.167,0.056,0.251,0.056
			c0.194,0,0.39-0.111,0.501-0.306c0.139-0.278,0.027-0.612-0.251-0.751c-1.28-0.668-2.198-2.56-2.198-4.508
			c0-1.725,1.419-3.144,3.145-3.144c0.334,0,0.64,0.056,0.946,0.139c-0.307,0.751-0.474,1.558-0.474,2.421
			c0,4.758,2.866,8.765,6.261,8.765c3.34,0,6.289-4.091,6.289-8.765c0-3.479-2.811-6.289-6.289-6.289
			c-2.198,0-4.145,1.141-5.259,2.866c-0.473-0.167-0.974-0.25-1.475-0.25c-1.503,0-2.838,0.807-3.59,2.004
			C7.022,4.612,6.967,4.584,6.911,4.557C6.494,4.334,6.077,4.25,5.603,4.25c-1.559-0.028-2.81,1.224-2.81,2.782
			c0,0.891,0.251,1.726,0.64,2.393c-1.279,0.334-2.42,0.835-2.949,2.532l-0.445,1.614c-0.083,0.278-0.027,0.585,0.14,0.807
			c0.167,0.251,0.473,0.39,0.779,0.39H3.1c-0.028,0.111-0.084,0.223-0.112,0.334l-0.723,2.615c-0.111,0.362-0.028,0.752,0.223,1.058
			c0.223,0.306,0.557,0.473,0.945,0.473h2.95c-0.084,0.195-0.14,0.39-0.195,0.584l-1.168,4.09c-0.111,0.473-0.028,0.974,0.278,1.363
			c0.306,0.39,0.751,0.612,1.224,0.612H27.92c0.473,0,0.946-0.223,1.225-0.612C29.45,24.897,29.561,24.396,29.423,23.896
			L29.423,23.896z M12.811,4c0.027-0.028,0.056-0.056,0.083-0.111c0.028-0.028,0.028-0.084,0.056-0.111
			c0.863-1.558,2.533-2.616,4.452-2.616c2.31,0,4.258,1.53,4.926,3.617c-0.974,0.195-2.004-0.194-2.616-1.029
			c-0.194-0.25-0.528-0.306-0.778-0.111c-0.111,0.084-0.167,0.167-0.195,0.278C18.709,3.944,18.709,3.972,18.682,4
			c-0.779,1.586-3.395,2.254-6.372,1.669C12.393,5.085,12.561,4.529,12.811,4L12.811,4z M14.369,6.977
			c2.225,0,4.062-0.695,5.008-2.003c0.696,0.612,1.559,0.946,2.476,0.946c0.224,0,0.474-0.028,0.696-0.083
			c0.027,0.167,0.027,0.306,0.027,0.473c0,4.09-2.421,7.68-5.176,7.68c-2.643,0-4.953-3.311-5.147-7.206
			C12.978,6.921,13.701,6.977,14.369,6.977L14.369,6.977z M1.18,13.655l0.39-1.391c0.334-1.141,1.029-1.475,2.421-1.809
			c0.083-0.028,0.166-0.056,0.222-0.111c0.14,0.111,0.251,0.195,0.418,0.278c0.083,0.055,0.167,0.055,0.25,0.055
			c0.194,0,0.39-0.111,0.501-0.306c0.139-0.278,0.027-0.612-0.223-0.751C4.435,9.231,3.906,8.146,3.906,7.033
			c0-0.946,0.751-1.697,1.697-1.697c0.307,0,0.557,0.056,0.808,0.195C6.494,5.558,6.55,5.586,6.633,5.586
			C6.494,6.003,6.411,6.449,6.411,6.921c0,1.587,0.528,3.145,1.363,4.23c-1.67,0.417-3.144,0.974-4.118,2.504H1.18z M28.282,24.619
			c-0.056,0.056-0.168,0.167-0.362,0.167H6.521c-0.194,0-0.306-0.112-0.361-0.167c-0.083-0.111-0.111-0.278-0.083-0.39l1.168-4.063
			c0.557-1.92,2.087-3.422,4.035-3.923l0.334-0.083c0.083-0.028,0.223,0.028,0.306,0.111c1.53,1.753,3.423,1.892,5.26,1.892
			c1.836,0,3.729-0.139,5.259-1.892c0.083-0.083,0.194-0.139,0.334-0.111l0.334,0.083c1.92,0.501,3.479,2.004,4.034,3.923
			l0.501,1.726c0.027,0.083,0.056,0.139,0.111,0.195l0.612,2.115C28.393,24.341,28.365,24.508,28.282,24.619L28.282,24.619z
			 M28.282,24.619"/>
	</g>
</g>
</svg>
