<?xml version="1.0" encoding="iso-8859-1"?>
<!-- Generator: Adobe Illustrator 21.0.2, SVG Export Plug-In . SVG Version: 6.00 Build 0)  -->
<svg version="1.1" id="Capa_1" xmlns="http://www.w3.org/2000/svg" xmlns:xlink="http://www.w3.org/1999/xlink" x="0px" y="0px"
	 viewBox="-49 173 512 480" enable-background="new -49 173 512 480" xml:space="preserve">
<path d="M287,173c-85.312,0-176,28.032-176,80v64c0,8.832,7.168,16,16,16s16-7.168,16-16v-16.672
	C176.952,321.736,233.016,333,287,333s110.048-11.264,144-32.672V317c0,15.648-39.36,40.608-113.344,46.784
	c-8.768,0.704-15.328,8.48-14.592,17.28c0.672,8.352,7.68,14.656,15.904,14.656c0.48,0,0.896-0.032,1.376-0.064
	c41.664-3.488,83.168-14.272,110.656-31.776V381c0,13.664-28.992,33.312-82.784,42.816c-8.672,1.536-14.496,9.856-12.96,18.528
	c1.376,7.744,8.128,13.216,15.712,13.216c0.928,0,1.888-0.064,2.816-0.256c32.544-5.728,58.592-15.104,77.216-27.008V445
	c0,13.664-28.992,33.312-82.784,42.816c-8.672,1.536-14.496,9.856-12.96,18.528c1.376,7.744,8.128,13.216,15.712,13.216
	c0.928,0,1.888-0.064,2.816-0.256c32.544-5.728,58.592-15.136,77.216-27.008V509c0,13.664-28.992,33.312-82.784,42.816
	c-8.672,1.536-14.496,9.856-12.96,18.528c1.376,7.744,8.128,13.216,15.712,13.216c0.928,0,1.888-0.064,2.816-0.256
	c32.544-5.728,58.592-15.136,77.216-27.008V573c0,15.648-39.36,40.608-113.344,46.784c-8.768,0.704-15.328,8.48-14.592,17.28
	c0.672,8.352,7.68,14.656,15.904,14.656c0.48,0,0.896-0.032,1.376-0.064C391.352,645.704,463,619.112,463,573V253
	C463,201.032,372.312,173,287,173z M287,301c-87.904,0-144-28.448-144-48s56.096-48,144-48s144,28.448,144,48S374.904,301,287,301z"
	/>
<path d="M127,653c85.312,0,176-28.032,176-80V445c0-51.968-90.688-80-176-80s-176,28.032-176,80v128C-49,624.968,41.688,653,127,653
	z M271,509c0,19.552-56.096,48-144,48s-144-28.448-144-48v-16.672C16.952,513.736,73.016,525,127,525s110.048-11.264,144-32.672V509
	z M127,621c-87.904,0-144-28.448-144-48v-16.672C16.952,577.736,73.016,589,127,589s110.048-11.264,144-32.672V573
	C271,592.552,214.904,621,127,621z M127,397c87.904,0,144,28.448,144,48s-56.096,48-144,48s-144-28.448-144-48S39.096,397,127,397z"
	/>
</svg>
