<?xml version="1.0" encoding="iso-8859-1"?>
<!-- Generator: Adobe Illustrator 21.0.2, SVG Export Plug-In . SVG Version: 6.00 Build 0)  -->
<svg version="1.1" id="Capa_1" xmlns="http://www.w3.org/2000/svg" xmlns:xlink="http://www.w3.org/1999/xlink" x="0px" y="0px"
	 viewBox="-31.856 158.109 478.856 462.891" enable-background="new -31.856 158.109 478.856 462.891" xml:space="preserve">
<path d="M375,347.856c3.782,0.004,6.852-3.058,6.856-6.84c0-0.005,0-0.011,0-0.016v-24c0.004-3.782-3.058-6.852-6.84-6.856
	c-0.005,0-0.011,0-0.016,0H-25c-3.782-0.004-6.852,3.058-6.856,6.84c0,0.005,0,0.011,0,0.016v192
	c-0.004,3.782,3.058,6.852,6.84,6.856c0.005,0,0.011,0,0.016,0h272c3.786,0,6.856-3.07,6.856-6.856c0-3.786-3.07-6.856-6.856-6.856
	H-18.144V323.856h386.288V341c-0.004,3.782,3.058,6.852,6.84,6.856C374.989,347.856,374.995,347.856,375,347.856z"/>
<path d="M3.328,207.208c-1.537,0.979-2.624,2.526-3.024,4.304l-16,72c-0.822,3.698,1.51,7.362,5.208,8.184s7.362-1.51,8.184-5.208
	l0,0L12.2,221.2l313.296,70.488c0.496,0.115,1.003,0.171,1.512,0.168c3.786-0.007,6.85-3.082,6.844-6.868
	c-0.006-3.201-2.225-5.971-5.348-6.676l-320-72C6.728,205.915,4.867,206.237,3.328,207.208z"/>
<path d="M85.152,200.072L98.28,173.8l186.072,77.528c3.504,1.462,7.53-0.192,8.992-3.696c1.462-3.504-0.192-7.53-3.696-8.992
	l-192-80c-3.337-1.391-7.182,0.038-8.8,3.272l-16,32c-1.807,3.342-0.563,7.517,2.78,9.324s7.517,0.563,9.324-2.78
	c0.071-0.131,0.138-0.265,0.2-0.401L85.152,200.072z"/>
<path d="M301.352,349c0-3.786-3.07-6.856-6.856-6.856H231c-3.786,0-6.856,3.07-6.856,6.856s3.07,6.856,6.856,6.856l0,0h63.496
	C298.282,355.856,301.352,352.786,301.352,349z"/>
<path d="M167,483.4c38.881,0,70.4-31.519,70.4-70.4c0-38.881-31.519-70.4-70.4-70.4S96.6,374.119,96.6,413l0,0
	C96.64,451.864,128.136,483.36,167,483.4z M167,355.4c31.812,0,57.6,25.788,57.6,57.6s-25.788,57.6-57.6,57.6
	s-57.6-25.788-57.6-57.6C109.435,381.203,135.203,355.435,167,355.4z"/>
<path d="M359,365c-42.4,0-88,10.016-88,32v192c0,21.984,45.6,32,88,32s88-10.016,88-32V397C447,375.016,401.4,365,359,365z
	 M431,556.88c-1.208,4.44-25.2,16.12-72,16.12s-70.792-11.68-72-16v-12.576C304.024,553,332.144,557,359,557s54.984-4.04,72-12.584
	V556.88z M431,524.88c-1.208,4.44-25.2,16.12-72,16.12s-70.792-11.68-72-16v-12.576C304.024,521,332.144,525,359,525
	s54.984-4.04,72-12.584V524.88z M431,492.88c-1.208,4.44-25.2,16.12-72,16.12s-70.792-11.68-72-16v-12.576
	C304.024,489,332.144,493,359,493s54.984-4.04,72-12.584V492.88z M431,460.88c-1.208,4.44-25.2,16.12-72,16.12s-70.792-11.68-72-16
	v-12.576C304.024,456.96,332.144,461,359,461s54.984-4.04,72-12.584V460.88z M431,428.88c-1.208,4.44-25.2,16.12-72,16.12
	s-70.792-11.68-72-16v-12.576C304.024,424.96,332.144,429,359,429s54.984-4.04,72-12.584V428.88z M359,381c46.4,0,70.4,11.472,72,16
	c-1.6,4.528-25.6,16-72,16c-46.728,0-70.712-11.648-72-15.856v-0.048C288.288,392.64,312.272,381,359,381z M359,605
	c-46.8,0-70.792-11.68-72-16v-12.576C304.024,585,332.144,589,359,589s54.984-4.04,72-12.584v12.464
	C429.792,593.32,405.8,605,359,605z"/>
<path d="M45.52,355.856H103c3.786,0,6.856-3.07,6.856-6.856s-3.07-6.856-6.856-6.856H42.736c-1.792-0.004-3.515,0.694-4.8,1.944
	L2.2,378.944c-1.335,1.56-2.067,3.547-2.064,5.6v56.896c0,1.711,0.639,3.36,1.792,4.624l32.504,35.552
	c1.299,1.422,3.137,2.233,5.064,2.232H103c3.786,0,6.856-3.07,6.856-6.856c0-3.786-3.07-6.856-6.856-6.856H42.528l-28.672-31.36v-52
	L45.52,355.856z"/>
<path d="M171,425h-20c-4.418,0-8,3.582-8,8s3.582,8,8,8h8c0,4.418,3.582,8,8,8s8-3.582,8-8v-0.36c8.873-1.253,15.595-8.648,16-17.6
	c-0.573-10.489-9.507-18.548-20-18.04h-8c-2.488,0-4-1.392-4-2s1.512-2,4-2h20c4.418,0,8-3.582,8-8s-3.582-8-8-8h-8
	c0-4.418-3.582-8-8-8s-8,3.582-8,8v0.36c-8.873,1.253-15.595,8.648-16,17.6c0.573,10.489,9.507,18.548,20,18.04h8
	c2.488,0,4,1.392,4,2S173.488,425,171,425z"/>
</svg>
