<?xml version="1.0" encoding="iso-8859-1"?>
<!-- Generator: Adobe Illustrator 21.0.2, SVG Export Plug-In . SVG Version: 6.00 Build 0)  -->
<svg version="1.1" id="&#x428;&#x430;&#x440;_1" xmlns="http://www.w3.org/2000/svg" xmlns:xlink="http://www.w3.org/1999/xlink"
	 x="0px" y="0px" viewBox="0 0 26.273 26.273" enable-background="new 0 0 26.273 26.273" xml:space="preserve">
<g>
	<g>
		<defs>
			<rect id="SVGID_1_" width="26.273" height="26.273"/>
		</defs>
		<clipPath id="SVGID_2_">
			<use xlink:href="#SVGID_1_"  overflow="visible"/>
		</clipPath>
		<path clip-path="url(#SVGID_2_)" fill="#181713" d="M5.037,24.524l1.341,0.555c0.157-0.263,0.317-0.535,0.476-0.81
			c0.222-0.385,0.648-0.599,1.089-0.545c0.506,0.063,1.017,0.063,1.522,0c0.438-0.054,0.866,0.16,1.089,0.545
			c0.155,0.271,0.315,0.543,0.475,0.809l1.341-0.555c-0.075-0.297-0.154-0.603-0.236-0.908c-0.116-0.429,0.035-0.883,0.385-1.155
			c0.4-0.313,0.763-0.675,1.075-1.076c0.273-0.35,0.727-0.501,1.156-0.385c0.303,0.081,0.608,0.161,0.908,0.236l0.555-1.34
			c-0.266-0.159-0.537-0.319-0.809-0.475c-0.386-0.222-0.6-0.65-0.545-1.09c0.063-0.505,0.063-1.018,0-1.521
			c-0.055-0.439,0.159-0.867,0.545-1.089c0.273-0.157,0.545-0.317,0.809-0.475l-0.555-1.34c-0.299,0.075-0.605,0.154-0.908,0.236
			c-0.43,0.116-0.883-0.035-1.155-0.384c-0.312-0.401-0.674-0.763-1.076-1.076c-0.35-0.272-0.501-0.726-0.385-1.155
			c0.081-0.304,0.161-0.609,0.236-0.909l-1.341-0.555c-0.159,0.265-0.318,0.537-0.476,0.81c-0.222,0.385-0.649,0.6-1.089,0.544
			c-0.506-0.063-1.017-0.063-1.522,0c-0.438,0.055-0.866-0.159-1.089-0.545c-0.157-0.273-0.316-0.545-0.475-0.809l-1.341,0.555
			c0.075,0.3,0.154,0.605,0.236,0.908c0.116,0.43-0.035,0.883-0.385,1.155c-0.4,0.312-0.763,0.674-1.075,1.076
			c-0.273,0.35-0.727,0.501-1.156,0.385c-0.305-0.082-0.609-0.162-0.908-0.236l-0.555,1.34c0.265,0.159,0.537,0.319,0.809,0.476
			c0.386,0.222,0.6,0.65,0.545,1.089c-0.063,0.505-0.063,1.017,0,1.522c0.055,0.439-0.159,0.867-0.545,1.088
			c-0.272,0.157-0.544,0.316-0.809,0.475l0.555,1.341C2.048,21.161,2.353,21.082,2.657,21c0.43-0.116,0.883,0.035,1.155,0.385
			c0.313,0.401,0.674,0.763,1.076,1.076c0.35,0.273,0.501,0.726,0.385,1.156C5.191,23.92,5.112,24.226,5.037,24.524L5.037,24.524z
			 M6.404,26.273c-0.141,0-0.282-0.027-0.418-0.083l-1.458-0.604c-0.5-0.207-0.778-0.758-0.648-1.282
			c0.078-0.312,0.16-0.63,0.246-0.948c-0.449-0.354-0.855-0.76-1.21-1.208c-0.317,0.086-0.636,0.167-0.946,0.245
			c-0.524,0.131-1.076-0.148-1.283-0.648l-0.603-1.458c-0.207-0.5-0.015-1.087,0.448-1.365c0.275-0.166,0.559-0.332,0.843-0.496
			c-0.066-0.567-0.066-1.142,0.001-1.71c-0.284-0.164-0.567-0.331-0.844-0.496c-0.463-0.278-0.655-0.865-0.448-1.365l0.603-1.458
			c0.207-0.5,0.759-0.779,1.283-0.648c0.311,0.078,0.629,0.16,0.947,0.245c0.355-0.448,0.761-0.855,1.209-1.209
			c-0.086-0.316-0.168-0.635-0.246-0.947c-0.13-0.524,0.148-1.076,0.648-1.283L5.986,8.95c0.501-0.207,1.087-0.014,1.365,0.449
			c0.165,0.274,0.332,0.558,0.497,0.843c0.566-0.066,1.142-0.066,1.709,0c0.164-0.284,0.331-0.568,0.496-0.843
			c0.278-0.463,0.866-0.656,1.366-0.449l1.458,0.604c0.5,0.207,0.778,0.759,0.647,1.283c-0.077,0.312-0.159,0.63-0.245,0.947
			c0.449,0.354,0.855,0.76,1.209,1.209c0.317-0.085,0.636-0.167,0.947-0.245c0.524-0.13,1.075,0.148,1.283,0.648l0.604,1.458l0,0
			c0.207,0.5,0.015,1.087-0.448,1.365c-0.275,0.166-0.559,0.332-0.843,0.496c0.066,0.567,0.066,1.142-0.001,1.71
			c0.284,0.163,0.567,0.33,0.844,0.496c0.463,0.278,0.655,0.865,0.448,1.365l-0.604,1.458c-0.208,0.5-0.759,0.779-1.283,0.648
			c-0.311-0.078-0.63-0.16-0.947-0.245c-0.355,0.449-0.761,0.855-1.208,1.209c0.085,0.319,0.168,0.638,0.245,0.947
			c0.13,0.524-0.148,1.075-0.648,1.282L11.42,26.19c-0.501,0.207-1.087,0.015-1.365-0.448c-0.167-0.277-0.333-0.56-0.497-0.843
			c-0.566,0.066-1.142,0.066-1.709,0c-0.165,0.286-0.332,0.569-0.496,0.843C7.149,26.08,6.782,26.273,6.404,26.273L6.404,26.273z"/>
	</g>
	<path fill="#181713" d="M8.699,14.738c-0.36,0-0.727,0.069-1.08,0.216c-1.442,0.597-2.13,2.257-1.532,3.7
		c0.289,0.699,0.834,1.243,1.532,1.533c0.699,0.289,1.469,0.289,2.168,0c1.442-0.598,2.13-2.258,1.532-3.7
		C10.868,15.397,9.811,14.738,8.699,14.738L8.699,14.738z M8.703,21.58c-0.52,0-1.039-0.102-1.534-0.307
		C6.181,20.864,5.41,20.093,5,19.104c-0.846-2.042,0.128-4.391,2.169-5.237c2.042-0.846,4.392,0.128,5.237,2.17l0,0
		c0.846,2.042-0.128,4.391-2.169,5.237C9.742,21.478,9.223,21.58,8.703,21.58L8.703,21.58z"/>
	<path fill="#181713" d="M19.184,12.232h0.828c0.026-0.184,0.053-0.373,0.077-0.561c0.049-0.373,0.313-0.679,0.675-0.778
		c0.346-0.095,0.68-0.233,0.991-0.411c0.326-0.185,0.729-0.156,1.028,0.073c0.15,0.115,0.302,0.23,0.451,0.342l0.586-0.585
		c-0.112-0.149-0.227-0.301-0.343-0.452c-0.229-0.298-0.258-0.702-0.072-1.028c0.177-0.313,0.315-0.646,0.411-0.992
		c0.099-0.361,0.404-0.626,0.777-0.675c0.19-0.024,0.377-0.05,0.562-0.077V6.261c-0.185-0.027-0.372-0.053-0.562-0.078
		c-0.373-0.048-0.679-0.313-0.777-0.675c-0.096-0.345-0.234-0.679-0.411-0.992c-0.186-0.326-0.157-0.729,0.072-1.028
		c0.116-0.15,0.231-0.302,0.343-0.452l-0.586-0.585c-0.149,0.112-0.301,0.227-0.451,0.342c-0.299,0.23-0.702,0.258-1.028,0.073
		c-0.312-0.178-0.646-0.316-0.991-0.411c-0.361-0.1-0.626-0.405-0.675-0.778c-0.024-0.189-0.051-0.377-0.077-0.561h-0.828
		c-0.026,0.185-0.053,0.373-0.077,0.561c-0.049,0.373-0.313,0.679-0.675,0.778c-0.346,0.095-0.68,0.233-0.992,0.411
		c-0.326,0.185-0.729,0.157-1.027-0.073c-0.15-0.115-0.302-0.23-0.452-0.342l-0.585,0.585c0.111,0.149,0.227,0.301,0.343,0.452
		c0.23,0.298,0.258,0.702,0.072,1.028c-0.178,0.313-0.315,0.646-0.411,0.992c-0.1,0.361-0.404,0.627-0.778,0.675
		c-0.188,0.025-0.376,0.051-0.561,0.078v0.827c0.185,0.027,0.372,0.053,0.561,0.078c0.374,0.049,0.679,0.313,0.778,0.675
		c0.096,0.346,0.233,0.679,0.411,0.992c0.186,0.326,0.157,0.729-0.072,1.028c-0.116,0.15-0.231,0.302-0.343,0.452l0.585,0.585
		c0.15-0.112,0.302-0.227,0.452-0.342c0.298-0.23,0.702-0.258,1.027-0.073c0.313,0.177,0.646,0.315,0.992,0.411
		c0.361,0.1,0.626,0.405,0.675,0.778C19.132,11.86,19.158,12.048,19.184,12.232L19.184,12.232z M20.172,13.35h-1.146
		c-0.458,0-0.854-0.341-0.922-0.792c-0.03-0.203-0.061-0.412-0.088-0.622c-0.353-0.106-0.693-0.247-1.018-0.421
		c-0.167,0.128-0.336,0.254-0.501,0.377c-0.368,0.271-0.889,0.232-1.213-0.091l-0.811-0.811c-0.324-0.324-0.363-0.845-0.092-1.212
		c0.122-0.165,0.249-0.334,0.378-0.502c-0.175-0.324-0.316-0.665-0.422-1.017c-0.21-0.028-0.419-0.057-0.621-0.088
		c-0.452-0.067-0.793-0.464-0.793-0.921V6.101c0-0.457,0.341-0.854,0.793-0.921c0.202-0.031,0.411-0.06,0.621-0.088
		c0.105-0.352,0.247-0.693,0.422-1.017c-0.129-0.168-0.256-0.336-0.378-0.502c-0.271-0.368-0.232-0.889,0.092-1.212l0.811-0.811
		c0.324-0.324,0.845-0.363,1.213-0.091c0.166,0.123,0.334,0.25,0.501,0.377c0.324-0.174,0.665-0.315,1.018-0.421
		c0.028-0.21,0.058-0.418,0.088-0.622C18.171,0.341,18.567,0,19.025,0h1.146c0.458,0,0.854,0.341,0.922,0.792
		c0.03,0.203,0.06,0.412,0.088,0.622c0.353,0.106,0.693,0.247,1.018,0.421c0.167-0.128,0.336-0.254,0.501-0.377
		c0.368-0.271,0.889-0.232,1.213,0.091l0.81,0.811c0.324,0.324,0.363,0.845,0.092,1.212c-0.122,0.165-0.249,0.333-0.378,0.502
		c0.175,0.324,0.316,0.665,0.422,1.017c0.21,0.028,0.419,0.057,0.621,0.088c0.452,0.067,0.793,0.464,0.793,0.921v1.148
		c0,0.457-0.341,0.854-0.793,0.921c-0.203,0.031-0.411,0.06-0.621,0.088c-0.105,0.352-0.247,0.693-0.422,1.017
		c0.129,0.168,0.255,0.336,0.378,0.502c0.271,0.367,0.232,0.889-0.092,1.212l-0.81,0.811c-0.324,0.324-0.846,0.363-1.213,0.091
		c-0.166-0.123-0.334-0.249-0.502-0.377c-0.323,0.174-0.665,0.316-1.017,0.421c-0.028,0.21-0.058,0.418-0.088,0.622
		C21.026,13.009,20.63,13.35,20.172,13.35L20.172,13.35z"/>
	<path fill="#181713" d="M19.599,5.352c-0.73,0-1.322,0.593-1.322,1.323s0.593,1.323,1.322,1.323c0.729,0,1.322-0.593,1.322-1.323
		S20.328,5.352,19.599,5.352L19.599,5.352z M19.599,9.056c-1.313,0-2.381-1.068-2.381-2.381s1.068-2.381,2.381-2.381
		s2.381,1.068,2.381,2.381S20.911,9.056,19.599,9.056L19.599,9.056z"/>
</g>
</svg>
