<?xml version="1.0" encoding="utf-8"?>
<!-- Generator: Adobe Illustrator 21.0.2, SVG Export Plug-In . SVG Version: 6.00 Build 0)  -->
<svg version="1.1" id="Шар_1" xmlns="http://www.w3.org/2000/svg" xmlns:xlink="http://www.w3.org/1999/xlink" x="0px" y="0px"
	 viewBox="0 0 29.4 25.8" enable-background="new 0 0 29.4 25.8" xml:space="preserve">
<g>
	<path d="M17.5,12.2h-1.9c-0.8,0-1.4-0.6-1.4-1.4c0-0.8,0.6-1.4,1.4-1.4H19c0.4,0,0.7-0.3,0.7-0.7C19.6,8.3,19.3,8,19,8h-1.8V6.7
		c0-0.4-0.3-0.7-0.7-0.7c-0.4,0-0.7,0.3-0.7,0.7V8h-0.3c-1.5,0-2.8,1.2-2.8,2.8c0,1.5,1.2,2.8,2.8,2.8h1.9c0.8,0,1.4,0.6,1.4,1.4
		c0,0.8-0.6,1.4-1.4,1.4h-3.4c-0.4,0-0.7,0.3-0.7,0.7c0,0.4,0.3,0.7,0.7,0.7h1.8v1.4c0,0.4,0.3,0.7,0.7,0.7s0.7-0.3,0.7-0.7v-1.4
		h0.3c1.5,0,2.7-1.3,2.7-2.8C20.3,13.5,19,12.2,17.5,12.2L17.5,12.2z M17.5,12.2"/>
	<path d="M25.7,3.8C23.2,1.3,20,0,16.5,0c-3.4,0-6.7,1.3-9.1,3.8c-0.9,0.9-1.7,2-2.3,3.1c0.5,0,0.9,0.2,1.3,0.4
		c2-3.5,5.8-5.9,10.1-5.9c6.4,0,11.6,5.2,11.6,11.6c0,6.4-5.2,11.6-11.6,11.6c-1.9,0-3.6-0.5-5.2-1.2c-0.2,0.4-0.5,0.8-0.8,1.1
		c1.8,1,3.9,1.5,6,1.5c3.4,0,6.7-1.3,9.1-3.8c2.4-2.4,3.8-5.7,3.8-9.1C29.4,9.4,28.1,6.2,25.7,3.8z"/>
	<path d="M16.5,24.5"/>
</g>
<path d="M4.9,24.4c-0.4,0-0.8-0.3-0.8-0.8V11c0-0.4,0.3-0.8,0.8-0.8s0.8,0.3,0.8,0.8v12.7C5.6,24.1,5.3,24.4,4.9,24.4z"/>
<path d="M4.8,25.7c-0.2,0-0.4-0.1-0.6-0.3l-4.1-4.8c-0.3-0.3-0.2-0.8,0.1-1.1c0.3-0.3,0.8-0.2,1.1,0.1l3.5,4.1l3.7-4.5
	c0.3-0.3,0.7-0.4,1.1-0.1c0.3,0.3,0.4,0.7,0.1,1.1l-4.2,5.2C5.3,25.6,5.1,25.7,4.8,25.7C4.8,25.7,4.8,25.7,4.8,25.7z"/>
</svg>
