<?xml version="1.0" encoding="utf-8"?>
<!-- Generator: Adobe Illustrator 21.0.2, SVG Export Plug-In . SVG Version: 6.00 Build 0)  -->
<svg version="1.1"  xmlns="http://www.w3.org/2000/svg" xmlns:xlink="http://www.w3.org/1999/xlink" x="0px" y="0px"
	 viewBox="0 0 27.2 25.7" enable-background="new 0 0 27.2 25.7" xml:space="preserve">
<g>
	<path d="M3.9,14.2c-0.3,0-0.5-0.2-0.5-0.5c0-0.3,0.2-0.5,0.5-0.5h12.6c0.3,0,0.5,0.2,0.5,0.5c0,0.3-0.2,0.5-0.5,0.5H3.9z"/>
	<path d="M9.5,11.2c-0.3,0-0.5-0.2-0.5-0.5c0-0.3,0.2-0.5,0.5-0.5h7c0.3,0,0.5,0.2,0.5,0.5c0,0.3-0.2,0.5-0.5,0.5H9.5z"/>
	<path d="M3.2,25.4c-1.6,0-2.9-1.3-2.9-2.9V3.2c0-1.6,1.3-2.9,2.9-2.9h10.4c0.1,0,0.3,0,0.4,0.1c0.1,0.1,0.3,0.1,0.4,0.2l5.4,5.2
		C19.9,5.9,20,6.1,20,6.2c0.1,0.1,0.1,0.3,0.1,0.4v2c0,0.1-0.9,1.5-0.9,1.5V6.8h-2.9c-1.6,0-2.9-1.3-2.9-2.9V1.2H3.2
		c-1.1,0-2,0.9-2,2v19.3c0,1.1,0.9,2,2,2h14.1c1,0,1.8-0.7,1.9-1.7h0l0-0.3v-1.7c0.3-0.4,0.6-0.8,0.9-1.2v2.9c0,1.6-1.3,2.9-2.9,2.9
		H3.2z"/>
	<path d="M5.3,4.9C4.6,5.2,4.2,5.7,4.1,6.4c0,0.7,0.3,1.1,0.9,1.4C5.3,8,5.7,8.1,6.1,8.3c0.1,0.1,0.3,0.1,0.4,0.2
		c0.3,0.3,0.3,0.7-0.1,0.9C6.1,9.5,5.9,9.5,5.7,9.5c-0.4,0-0.7-0.1-1-0.3C4.4,9.1,4.4,9.2,4.3,9.4c0,0.2-0.1,0.4-0.1,0.5
		c-0.1,0.2,0,0.3,0.2,0.4c0.3,0.1,0.6,0.2,0.9,0.3c0.3,0,0.3,0,0.3,0.3c0,0.1,0,0.2,0,0.4c0,0.2,0.1,0.2,0.2,0.2c0.2,0,0.3,0,0.5,0
		c0.1,0,0.2-0.1,0.2-0.2c0-0.2,0-0.3,0-0.5c0-0.2,0.1-0.2,0.2-0.3c0.4-0.1,0.7-0.3,0.9-0.6C8.3,9,8,7.9,7.1,7.4
		C6.8,7.2,6.5,7.1,6.2,6.9C6,6.9,5.8,6.8,5.7,6.7C5.4,6.4,5.4,6.1,5.8,5.9c0.1,0,0.2-0.1,0.3-0.1c0.4,0,0.8,0,1.2,0.2
		c0.2,0.1,0.2,0.1,0.3-0.1c0.1-0.2,0.1-0.4,0.2-0.6c0-0.1,0-0.2-0.1-0.3C7.3,4.9,7.1,4.8,6.8,4.8c-0.3,0-0.3-0.1-0.3-0.4
		C6.5,4,6.5,4,6,4C5.9,4,5.9,4,5.8,4C5.6,4,5.5,4,5.5,4.2c0,0.1,0,0.2,0,0.3C5.5,4.8,5.5,4.8,5.3,4.9L5.3,4.9z M5.3,4.9"/>
	<path d="M3.9,17.2c-0.3,0-0.5-0.2-0.5-0.5c0-0.3,0.2-0.5,0.5-0.5h11.9c-0.1,0.1-0.4,0.8-0.4,0.9H3.9z"/>
	<g>
		<defs>
			<rect id="SVGID_1_" width="27.2" height="25.7"/>
		</defs>
		<clipPath id="SVGID_2_">
			<use xlink:href="#SVGID_1_"  overflow="visible"/>
		</clipPath>
		<path clip-path="url(#SVGID_2_)" d="M3.9,20.2c-0.3,0-0.5-0.2-0.5-0.5c0-0.3,0.2-0.5,0.5-0.5h10.5c-0.1,0.3-0.2,0.6-0.3,0.9H3.9z"
			/>
		<path clip-path="url(#SVGID_2_)" d="M15.5,22c0,0,0-0.2,0-0.2l0-0.1c0-0.1,0-0.3,0.1-0.4l0-0.1c0.4-1.3,1-2.5,1.5-3.7
			c0.8-1.7,1.8-3.5,2.9-5.4l1-1.6l0.5-0.8c0.6-1,1.2-2,1.9-3c0.2-0.3,0.5-0.6,0.8-0.9c0.2-0.2,0.4-0.3,0.6-0.3
			c0.2,0,0.3,0.1,0.5,0.2c0.6,0.3,0.6,0.7,0.6,1.1c0,0.1-0.1,0.3-0.1,0.3c-0.1,0.2-0.2,0.5-0.3,0.7L25.5,8l1.3,0.8
			C26.9,8.9,27,9,26.9,9.2l-3.6,6.1c-0.1,0-0.2-0.1-0.2-0.2c-0.1-0.1,0-0.3,0-0.4l3.3-5.6l-1.1-0.7l-0.4,0.8c-0.3,0.5-0.6,1-0.9,1.5
			c-0.2,0.4-0.5,0.8-0.7,1.2l-1.2,1.9c-1.4,2.1-3,4.6-5,6.9c-0.4,0.4-0.8,0.8-1.2,1.2C15.7,21.9,15.6,22,15.5,22
			C15.6,22,15.5,22,15.5,22z"/>
	</g>
</g>
</svg>
