<?xml version="1.0" encoding="utf-8"?>
<!-- Generator: Adobe Illustrator 21.0.2, SVG Export Plug-In . SVG Version: 6.00 Build 0)  -->
<svg version="1.1" id="Layer_1" xmlns="http://www.w3.org/2000/svg" xmlns:xlink="http://www.w3.org/1999/xlink" x="0px" y="0px"
	 viewBox="0 0 363.4 436.1" enable-background="new 0 0 363.4 436.1" xml:space="preserve">
<path fill="#010101" d="M63.6,118.1v63.6H36.3C16.3,181.7,0,198,0,218v181.7c0,20.1,16.3,36.3,36.3,36.3h290.7
	c20.1,0,36.3-16.3,36.3-36.3V218c0-20.1-16.3-36.3-36.3-36.3h-27.3v-63.6C299.8,52.9,246.9,0,181.7,0S63.6,52.9,63.6,118.1z
	 M109,181.7v-63.6c0-40.2,32.5-72.7,72.7-72.7s72.7,32.5,72.7,72.7v63.6H109z M145.4,281.6c0-20.1,16.3-36.3,36.3-36.3
	s36.3,16.3,36.3,36.3c0,12.8-6.6,24.1-16.6,30.5c0,0,3.5,21.4,7.5,46.7c0,7.5-6.1,13.6-13.6,13.6h-27.3c-7.5,0-13.6-6.1-13.6-13.6
	l7.5-46.7C152,305.7,145.4,294.5,145.4,281.6z"/>
</svg>
