<?xml version="1.0" encoding="iso-8859-1"?>
<!-- Generator: Adobe Illustrator 21.0.2, SVG Export Plug-In . SVG Version: 6.00 Build 0)  -->
<svg version="1.1" id="&#x428;&#x430;&#x440;_1" xmlns="http://www.w3.org/2000/svg" xmlns:xlink="http://www.w3.org/1999/xlink"
	 x="0px" y="0px" viewBox="0 0 24.219 26.146" enable-background="new 0 0 24.219 26.146" xml:space="preserve">
<g>
	<g>
		<defs>
			<rect id="SVGID_1_" width="24.219" height="26.146"/>
		</defs>
		<clipPath id="SVGID_2_">
			<use xlink:href="#SVGID_1_"  overflow="visible"/>
		</clipPath>
		<path clip-path="url(#SVGID_2_)" d="M11.649,24.584H4.845c-1.85,0-3.35-1.506-3.35-3.35v-16.4c0-1.849,1.506-3.35,3.35-3.35h6.916
			c0.415,0,0.747-0.332,0.747-0.748c0-0.416-0.332-0.748-0.747-0.748H4.845C2.17-0.011,0,2.165,0,4.834v16.4
			c0,2.674,2.176,4.845,4.845,4.845h6.805c0.415,0,0.748-0.332,0.748-0.748C12.397,24.917,12.06,24.584,11.649,24.584L11.649,24.584
			z M11.649,24.584"/>
		<path clip-path="url(#SVGID_2_)" d="M23.964,12.508l-4.751-4.751c-0.293-0.293-0.764-0.293-1.058,0
			c-0.293,0.293-0.293,0.764,0,1.058l3.477,3.477H6.467c-0.415,0-0.747,0.332-0.747,0.747c0,0.415,0.332,0.748,0.747,0.748h15.166
			l-3.477,3.478c-0.293,0.293-0.293,0.764,0,1.057c0.144,0.144,0.338,0.222,0.526,0.222c0.189,0,0.382-0.072,0.526-0.222l4.75-4.751
			C24.257,13.272,24.257,12.796,23.964,12.508L23.964,12.508z M23.964,12.508"/>
	</g>
</g>
</svg>
