<?xml version="1.0" encoding="utf-8"?>
<!-- Generator: Adobe Illustrator 21.0.2, SVG Export Plug-In . SVG Version: 6.00 Build 0)  -->
<svg version="1.1" id="Layer_1" xmlns="http://www.w3.org/2000/svg" xmlns:xlink="http://www.w3.org/1999/xlink" x="0px" y="0px"
	 viewBox="0 0 32 32" enable-background="new 0 0 32 32" xml:space="preserve">
<path id="paperplane" fill="#333333" d="M31.5,0.2C31.4,0.1,31.2,0,31,0c-0.2,0-0.4,0.1-0.6,0.2l-30,20C0.1,20.4,0,20.7,0,21.1
	c0,0.4,0.3,0.7,0.6,0.8l7.8,3.1l3.7,6.4c0.2,0.3,0.5,0.5,0.9,0.5c0,0,0,0,0,0c0.4,0,0.7-0.2,0.9-0.5l2.1-3.5l9.7,3.9
	c0.1,0,0.2,0.1,0.4,0.1c0.2,0,0.3,0,0.5-0.1c0.3-0.1,0.4-0.4,0.5-0.7l5-30C32.1,0.8,31.9,0.4,31.5,0.2z M3.1,20.8L26.3,5.3l-16.9,18
	c-0.1-0.1-0.2-0.1-0.3-0.2L3.1,20.8z M10.2,24.1C10.2,24.1,10.2,24.1,10.2,24.1L29.1,3.8L13,28.9L10.2,24.1z M25.2,29.6l-8.5-3.4
	c-0.2-0.1-0.4-0.1-0.6-0.1L29.2,5.7L25.2,29.6z"/>
</svg>
