<?xml version="1.0" encoding="iso-8859-1"?>
<!-- Generator: Adobe Illustrator 21.0.2, SVG Export Plug-In . SVG Version: 6.00 Build 0)  -->
<svg version="1.1" id="&#x428;&#x430;&#x440;_1" xmlns="http://www.w3.org/2000/svg" xmlns:xlink="http://www.w3.org/1999/xlink"
	 x="0px" y="0px" viewBox="0 0 25.826 26.106" enable-background="new 0 0 25.826 26.106" xml:space="preserve">
<g>
	<g>
		<defs>
			<rect id="SVGID_1_" width="25.826" height="26.106"/>
		</defs>
		<clipPath id="SVGID_2_">
			<use xlink:href="#SVGID_1_"  overflow="visible"/>
		</clipPath>
		<path clip-path="url(#SVGID_2_)" d="M25.758,12.115h-1.249V6.372c0-1.376-1.119-2.497-2.496-2.497h-1.691l-1.729-3.111
			c-0.264-0.476-0.766-0.771-1.31-0.771c-0.253,0-0.505,0.065-0.728,0.189l-6.64,3.693H2.497C1.12,3.875,0,4.996,0,6.372v17.144
			c0,1.376,1.12,2.497,2.497,2.497h19.516c1.377,0,2.496-1.12,2.496-2.497v-5.035h1.249V12.115z M22.013,4.874
			c0.769,0,1.396,0.584,1.481,1.332h-1.876l-0.74-1.332H22.013z M17.04,1.056c0.234-0.131,0.549-0.039,0.679,0.194l2.756,4.956
			H7.778L17.04,1.056z M23.511,23.516c0,0.826-0.672,1.498-1.498,1.498H2.497c-0.826,0-1.499-0.672-1.499-1.498V6.372
			c0-0.826,0.673-1.498,1.499-1.498h5.621L5.724,6.206H2.809c-0.276,0-0.499,0.223-0.499,0.499c0,0.276,0.223,0.499,0.499,0.499
			h20.702v4.911h-3.652c-1.695,0-3.075,1.38-3.075,3.076v0.214c0,1.696,1.38,3.076,3.075,3.076h3.652V23.516z M24.759,17.482h-4.9
			c-1.146,0-2.077-0.932-2.077-2.077V15.19c0-1.146,0.932-2.077,2.077-2.077h4.9V17.482z M21.388,15.339
			c0,0.609-0.493,1.103-1.102,1.103c-0.608,0-1.102-0.493-1.102-1.103c0-0.609,0.493-1.103,1.102-1.103
			C20.894,14.236,21.388,14.731,21.388,15.339L21.388,15.339z M21.388,15.339"/>
	</g>
</g>
</svg>
