<?xml version="1.0" encoding="iso-8859-1"?>
<!-- Generator: Adobe Illustrator 21.0.2, SVG Export Plug-In . SVG Version: 6.00 Build 0)  -->
<svg version="1.1" id="&#x421;&#x43B;&#x43E;&#x439;_1"
	 xmlns="http://www.w3.org/2000/svg" xmlns:xlink="http://www.w3.org/1999/xlink" x="0px" y="0px" viewBox="0 0 48 44"
	 enable-background="new 0 0 48 44" xml:space="preserve">
<g>
	<path d="M44.012,34.312l-7.645-3.82c-0.719-0.363-1.168-1.086-1.168-1.894v-2.703c0.184-0.227,0.375-0.481,0.574-0.762
		c0.993-1.399,1.789-2.957,2.364-4.641C39.266,19.977,40,18.859,40,17.602v-3.204c0-0.769-0.289-1.515-0.801-2.097V8.043
		c0.047-0.438,0.223-3.059-1.672-5.219C35.883,0.949,33.219,0,29.602,0c-3.618,0-6.286,0.949-7.93,2.824
		c-1.145,1.309-1.531,2.785-1.649,3.844c-1.371-0.707-2.988-1.066-4.824-1.066c-8.308,0-8.793,7.082-8.801,7.199v3.664
		c-0.515,0.562-0.796,1.215-0.796,1.863v2.762c0,0.863,0.386,1.668,1.046,2.211c0.661,2.488,2.286,4.371,2.914,5.031v2.191
		c0,0.633-0.339,1.207-0.933,1.536l-5.324,3.336C1.266,36.508,0,38.641,0,40.961V44h48v-3.234
		C48,38.016,46.473,35.543,44.012,34.312L44.012,34.312z M11.199,40.609v1.789H1.602v-1.437c0-1.734,0.945-3.328,2.511-4.184
		l5.321-3.339c1.066-0.583,1.73-1.696,1.73-2.915v-2.871l-0.254-0.238c-0.023-0.019-2.148-2.027-2.777-4.762l-0.071-0.32
		l-0.273-0.176c-0.367-0.238-0.59-0.636-0.59-1.066v-2.762c0-0.289,0.196-0.633,0.539-0.941L8,17.152v-4.304
		c0.012-0.231,0.43-5.649,7.199-5.649c1.914,0,3.528,0.442,4.801,1.317v3.785c-0.512,0.582-0.801,1.328-0.801,2.097v3.204
		c0,0.242,0.028,0.48,0.082,0.71c0.02,0.094,0.063,0.18,0.094,0.27c0.043,0.133,0.078,0.273,0.141,0.398
		c0,0.004,0.004,0.004,0.004,0.004c0.203,0.422,0.503,0.801,0.878,1.102c0.004,0.016,0.008,0.031,0.012,0.043
		c0.047,0.183,0.098,0.367,0.152,0.547l0.067,0.207c0.012,0.039,0.023,0.074,0.035,0.113c0.027,0.086,0.055,0.172,0.086,0.254
		c0.047,0.141,0.098,0.285,0.156,0.445c0.024,0.063,0.051,0.125,0.078,0.188c0.063,0.168,0.129,0.328,0.2,0.488
		c0.015,0.039,0.031,0.082,0.046,0.117l0.047,0.102c0.02,0.047,0.043,0.09,0.063,0.133c0.078,0.172,0.156,0.339,0.234,0.5
		c0.012,0.023,0.024,0.05,0.039,0.078c0.051,0.097,0.098,0.195,0.149,0.289c0.086,0.164,0.172,0.32,0.258,0.472
		c0.042,0.071,0.082,0.145,0.121,0.215c0.117,0.196,0.226,0.375,0.332,0.543c0.023,0.039,0.047,0.075,0.07,0.11
		c0.191,0.3,0.359,0.543,0.5,0.734c0.035,0.047,0.066,0.094,0.098,0.133c0.019,0.023,0.043,0.058,0.058,0.078v2.648
		c0,0.774-0.422,1.485-1.101,1.856l-2.118,1.156L19.613,31.5l-0.152,0.316l-4.5,2.457C12.641,35.539,11.199,37.965,11.199,40.609
		L11.199,40.609z M46.398,42.398H12.801v-1.789c0-2.054,1.121-3.945,2.926-4.929l7.136-3.895c1.196-0.652,1.938-1.902,1.938-3.262
		v-3.214l-0.156-0.184l-0.032-0.039c0,0-0.051-0.063-0.133-0.168c-0.003-0.004-0.007-0.012-0.011-0.02
		c-0.043-0.054-0.094-0.121-0.149-0.199c-0.004,0-0.004-0.004-0.004-0.004c-0.121-0.164-0.269-0.383-0.437-0.64
		c-0.004-0.004-0.004-0.012-0.008-0.016c-0.078-0.125-0.164-0.258-0.246-0.398c-0.008-0.012-0.016-0.02-0.02-0.032
		c-0.183-0.304-0.375-0.648-0.566-1.027c0,0,0,0,0-0.004c-0.101-0.203-0.203-0.418-0.301-0.64c-0.015-0.032-0.031-0.063-0.043-0.094
		c-0.043-0.098-0.09-0.203-0.133-0.313c-0.015-0.039-0.031-0.078-0.046-0.117c-0.043-0.105-0.086-0.211-0.129-0.332
		c-0.082-0.219-0.16-0.445-0.235-0.68l-0.043-0.14c-0.004-0.02-0.011-0.035-0.015-0.051c-0.074-0.254-0.149-0.512-0.207-0.777
		l-0.075-0.317l-0.273-0.176c-0.461-0.3-0.738-0.8-0.738-1.339v-3.204c0-0.445,0.191-0.867,0.535-1.179l0.266-0.239V7.719
		l-0.024-0.02c-0.027-0.578,0.008-2.347,1.297-3.82c1.328-1.512,3.59-2.277,6.727-2.277c3.121,0,5.378,0.757,6.707,2.261
		c1.558,1.762,1.3,4.012,1.296,4.032l-0.003,5.085l0.261,0.243c0.348,0.308,0.535,0.73,0.535,1.175v3.204
		c0,0.695-0.457,1.308-1.136,1.519l-0.399,0.121l-0.129,0.395c-0.535,1.664-1.296,3.203-2.265,4.57
		C34.23,24.543,34,24.844,33.801,25.07l-0.199,0.227v3.301c0,1.418,0.785,2.691,2.05,3.324l7.645,3.82
		c1.914,0.957,3.101,2.883,3.101,5.024V42.398z M46.398,42.398"/>
</g>
</svg>
