<?xml version="1.0" encoding="iso-8859-1"?>
<!-- Generator: Adobe Illustrator 21.0.2, SVG Export Plug-In . SVG Version: 6.00 Build 0)  -->
<svg version="1.1" id="Capa_1" xmlns="http://www.w3.org/2000/svg" xmlns:xlink="http://www.w3.org/1999/xlink" x="0px" y="0px"
	 viewBox="-49 141 512 512" enable-background="new -49 141 512 512" xml:space="preserve">
<path d="M463,221v116c0,11.046-8.954,20-20,20s-20-8.954-20-20V221c0-22.056-17.944-40-40-40H31c-22.056,0-40,17.944-40,40v216
	c0,22.056,17.944,40,40,40h96c11.046,0,20,8.954,20,20s-8.954,20-20,20H31c-44.112,0-80-35.888-80-80V221c0-44.112,35.888-80,80-80
	h352C427.112,141,463,176.888,463,221z M443,417c-11.046,0-20,8.954-20,20c0,22.056-17.944,40-40,40h-96c-11.046,0-20,8.954-20,20
	s8.954,20,20,20h96c44.112,0,80-35.888,80-80C463,425.954,454.046,417,443,417z M386,328c0-11.046-8.954-20-20-20s-20,8.954-20,20
	s8.954,20,20,20S386,339.046,386,328z M28,328c0,11.046,8.954,20,20,20s20-8.954,20-20s-8.954-20-20-20S28,316.954,28,328z
	 M263.942,565.774L227,602.28V417c0-11.046-8.954-20-20-20s-20,8.954-20,20v183.303l-34.942-34.529
	c-7.857-7.764-20.52-7.688-28.284,0.168c-7.764,7.857-7.688,20.52,0.168,28.284l41.589,41.098C176.878,646.724,191.955,653,208,653
	s31.122-6.276,42.469-17.676l41.589-41.098c7.856-7.764,7.932-20.427,0.168-28.284C284.461,558.085,271.799,558.009,263.942,565.774
	z M262.172,394.815c3.35,2.157,7.101,3.188,10.809,3.187c6.573,0,13.011-3.237,16.834-9.174
	C301.712,370.354,308,349.277,308,327.878c0-59.551-45.309-108-101-108s-101,48.449-101,108c0,22.906,5.798,43.438,17.233,61.024
	c6.021,9.26,18.41,11.886,27.669,5.865c9.26-6.021,11.886-18.409,5.865-27.669C149.623,356.109,146,342.915,146,327.878
	c0-37.495,27.364-68,61-68s61,30.505,61,68c0,13.702-4.085,27.29-11.815,39.293C250.205,376.459,252.885,388.835,262.172,394.815z"
	/>
</svg>
