<?xml version="1.0" encoding="iso-8859-1"?>
<!-- Generator: Adobe Illustrator 21.0.2, SVG Export Plug-In . SVG Version: 6.00 Build 0)  -->
<svg version="1.1" id="&#x428;&#x430;&#x440;_1" xmlns="http://www.w3.org/2000/svg" xmlns:xlink="http://www.w3.org/1999/xlink"
	 x="0px" y="0px" viewBox="0 0 29.431 25.784" enable-background="new 0 0 29.431 25.784" xml:space="preserve">
<g>
	<path d="M17.498,12.206h-1.914c-0.796,0-1.443-0.647-1.443-1.443c0-0.795,0.648-1.442,1.443-1.442h3.379
		c0.362,0,0.658-0.296,0.658-0.659c0-0.362-0.296-0.658-0.658-0.658h-1.761V6.66c0-0.362-0.296-0.658-0.658-0.658
		c-0.362,0-0.658,0.296-0.658,0.658v1.344h-0.302c-1.52,0-2.76,1.24-2.76,2.759c0,1.52,1.24,2.76,2.76,2.76h1.914
		c0.796,0,1.443,0.647,1.443,1.443c0,0.795-0.648,1.442-1.443,1.442h-3.439c-0.362,0-0.658,0.296-0.658,0.659
		c0,0.362,0.296,0.658,0.658,0.658h1.821v1.371c0,0.362,0.296,0.659,0.658,0.659c0.362,0,0.658-0.296,0.658-0.659v-1.371h0.335
		c1.503-0.022,2.721-1.251,2.721-2.759C20.252,13.44,19.018,12.206,17.498,12.206L17.498,12.206z M17.498,12.206"/>
	<path d="M25.656,22.009c-2.437,2.436-5.673,3.774-9.118,3.774c-3.444,0-6.682-1.338-9.117-3.774
		c-0.925-0.926-1.674-1.975-2.268-3.101c0.494-0.041,0.93-0.163,1.304-0.359c1.986,3.525,5.757,5.918,10.081,5.918
		c6.38,0,11.575-5.195,11.575-11.575c0-6.38-5.195-11.576-11.575-11.576c-1.861,0-3.616,0.453-5.176,1.238
		c-0.215-0.412-0.505-0.768-0.848-1.067C12.349,0.517,14.403,0,16.538,0c3.445,0,6.682,1.338,9.118,3.774
		c2.436,2.436,3.774,5.672,3.774,9.118C29.431,16.337,28.092,19.574,25.656,22.009z"/>
	<path d="M16.538,1.316"/>
</g>
<path d="M4.884,16.628c-0.414,0-0.75-0.336-0.75-0.75V3.156c0-0.414,0.336-0.75,0.75-0.75s0.75,0.336,0.75,0.75v12.722
	C5.634,16.292,5.298,16.628,4.884,16.628z"/>
<path d="M9.179,7.067c-0.201,0-0.401-0.081-0.55-0.24L4.918,2.832L1.306,6.82c-0.277,0.307-0.754,0.33-1.06,0.052
	c-0.307-0.278-0.33-0.752-0.052-1.059l4.161-4.595c0.141-0.156,0.341-0.245,0.551-0.247c0.198-0.014,0.411,0.085,0.555,0.24
	l4.268,4.595C10.01,6.11,9.992,6.584,9.69,6.866C9.545,7,9.361,7.067,9.179,7.067z"/>
</svg>
