<?xml version="1.0" encoding="UTF-8"?><!DOCTYPE svg PUBLIC "-//W3C//DTD SVG 1.1//EN" "http://www.w3.org/Graphics/SVG/1.1/DTD/svg11.dtd"><svg xmlns="http://www.w3.org/2000/svg" xmlns:xlink="http://www.w3.org/1999/xlink"><defs>
        <path id="a" d="M0 0h21.8v25.7H0z"/>
    
        <path id="a" d="M0 0h29.551v25.982H0z"/>
    
        <path id="a" d="M0 0h26.273v26.273H0z"/>
    
        <path id="a" d="M0 0h27.2v25.7H0z"/>
    
        <path id="a" d="M0 0h24.219v26.146H0z"/>
    
        <path id="a" d="M0 0h25.826v26.106H0z"/>
    </defs><symbol id="icon-account-info" viewBox="0 0 275.199 275.199">
    <path d="M38.719 233.199c25.043 25.84 60.082 42 98.883 42 75.839 0 137.597-61.758 137.597-137.597C275.199 61.762 213.441 0 137.602 0 61.762 0 0 61.762 0 137.602c0 36.16 14.078 69.117 36.961 93.679.48.797 1.117 1.361 1.758 1.918zm98.883 26.16c-29.922 0-57.442-10.879-78.641-28.879 35.68-11.839 48.879-26.242 53.758-35.839 6.801 2.961 14.402 4.558 22.801 4.64h1.839c9.122-.16 17.36-2 24.481-5.441 4.559 9.601 17.52 24.48 54.238 36.64-21.117 18.001-48.559 28.879-78.476 28.879zM93.121 112.16v-.48c1.918-41.68 32.641-44.961 42.078-44.961h2.563c9.359 0 40.16 3.281 42.078 44.961v.48c.082.399 4 38.961-14 59.199-7.121 8-16.641 12-29.039 12.082h-.481c-12.48-.16-21.922-4.082-29.039-12.082-18.082-20.078-14.242-58.8-14.16-59.199zm44.481-96.32c67.117 0 121.757 54.64 121.757 121.762 0 30.718-11.52 58.878-30.32 80.32-51.68-15.043-53.68-33.281-53.68-33.523v.403h-.559a104.56 104.56 0 0 0 2.879-2.961c22-24.719 18.32-67.039 17.922-71.199-2.16-44.161-32.48-59.84-57.839-59.84h-2.563c-25.359 0-55.758 15.679-57.84 59.84-.398 4.078-4 46.398 17.922 71.199 1.278 1.441 2.641 2.801 4 4.082-1.679 4.637-10.16 19.359-53.121 31.917-18.879-21.441-30.32-49.52-30.32-80.238 0-67.121 54.64-121.762 121.762-121.762zm0 0"/>
</symbol><symbol id="icon-account" viewBox="0 0 21.8 25.7">
    
    <clipPath id="b">
        <use xlink:href="#a" overflow="visible"/>
    </clipPath>
    <path clip-path="url(#b)" d="M10.8 13.8h.2c1.6 0 2.8-.6 3.7-1.6 2-2.3 1.7-6.2 1.7-6.6-.1-2.8-1.5-4.2-2.6-4.8C13 .3 12 .1 10.9 0h-.1c-.5 0-1.7.1-2.8.8-1.1.6-2.5 2-2.6 4.8 0 .4-.4 4.3 1.7 6.6.9 1 2.1 1.6 3.7 1.6zm-4-8.1c.2-3.8 2.9-4.2 4-4.2h.1c1.4 0 3.9.6 4 4.2 0 0 .4 3.6-1.3 5.5-.7.8-1.6 1.1-2.7 1.1h-.1c-1.2 0-2.1-.4-2.7-1.1-1.7-1.8-1.3-5.4-1.3-5.5zm0 0"/>
    <path clip-path="url(#b)" d="M21.8 20.4v-.1c0-1-.1-3.5-2.4-4.3h-.1c-2.4-.6-4.4-2-4.4-2-.3-.2-.8-.1-1 .2-.2.3-.1.8.2 1 .1.1 2.2 1.5 4.8 2.2 1.2.4 1.4 1.8 1.4 3v.1c0 .5 0 1.2-.1 1.6-.9.5-4.2 2.2-9.3 2.2-5.1 0-8.5-1.7-9.3-2.2-.1-.4-.1-1.2-.1-1.6v-.1c0-1.2.2-2.5 1.4-3 2.6-.7 4.7-2.2 4.8-2.2.3-.2.4-.7.2-1-.2-.3-.7-.4-1-.2 0 0-2 1.4-4.4 2h-.1C.1 16.7 0 19.2 0 20.2v.1c0 .3 0 1.7.3 2.4.1.1.1.3.3.3.2.1 4 2.5 10.3 2.5s10.2-2.4 10.3-2.5l.3-.3c.3-.7.3-2.1.3-2.3zm0 0"/>
</symbol><symbol id="icon-affiliate" viewBox="0 0 29.551 25.982">
    
    <clipPath id="b">
        <use xlink:href="#a" overflow="visible"/>
    </clipPath>
    <path clip-path="url(#b)" d="M29.423 23.896l-1.169-4.063a.588.588 0 0 0-.14-.223 6.817 6.817 0 0 0-4.758-4.48l-.334-.056a1.395 1.395 0 0 0-1.419.445c-1.225 1.391-2.782 1.502-4.424 1.502-1.643 0-3.2-.111-4.425-1.502a1.392 1.392 0 0 0-1.419-.445l-.334.083a6.904 6.904 0 0 0-4.063 2.977H3.433c-.027 0-.027 0-.056-.028 0-.028-.027-.056-.027-.111l.724-2.587c.64-2.031 1.864-2.644 4.257-3.256a.542.542 0 0 0 .251-.139c.194.167.417.306.64.417.084.056.167.056.251.056.194 0 .39-.111.501-.306a.558.558 0 0 0-.251-.751c-1.28-.668-2.198-2.56-2.198-4.508a3.159 3.159 0 0 1 3.145-3.144c.334 0 .64.056.946.139a6.344 6.344 0 0 0-.474 2.421c0 4.758 2.866 8.765 6.261 8.765 3.34 0 6.289-4.091 6.289-8.765A6.282 6.282 0 0 0 17.403.048a6.26 6.26 0 0 0-5.259 2.866 4.438 4.438 0 0 0-1.475-.25c-1.503 0-2.838.807-3.59 2.004a.574.574 0 0 0-.168-.111c-.417-.223-.834-.307-1.308-.307a2.76 2.76 0 0 0-2.81 2.782c0 .891.251 1.726.64 2.393-1.279.334-2.42.835-2.949 2.532l-.445 1.614a.922.922 0 0 0 .14.807c.167.251.473.39.779.39H3.1c-.028.111-.084.223-.112.334l-.723 2.615c-.111.362-.028.752.223 1.058.223.306.557.473.945.473h2.95c-.084.195-.14.39-.195.584l-1.168 4.09c-.111.473-.028.974.278 1.363.306.39.751.612 1.224.612H27.92a1.52 1.52 0 0 0 1.225-.612c.305-.388.416-.889.278-1.389zM12.811 4c.027-.028.056-.056.083-.111.028-.028.028-.084.056-.111a5.083 5.083 0 0 1 4.452-2.616c2.31 0 4.258 1.53 4.926 3.617a2.619 2.619 0 0 1-2.616-1.029c-.194-.25-.528-.306-.778-.111a.475.475 0 0 0-.195.278c-.03.027-.03.055-.057.083-.779 1.586-3.395 2.254-6.372 1.669.083-.584.251-1.14.501-1.669zm1.558 2.977c2.225 0 4.062-.695 5.008-2.003a3.722 3.722 0 0 0 2.476.946c.224 0 .474-.028.696-.083.027.167.027.306.027.473 0 4.09-2.421 7.68-5.176 7.68-2.643 0-4.953-3.311-5.147-7.206.725.137 1.448.193 2.116.193zM1.18 13.655l.39-1.391c.334-1.141 1.029-1.475 2.421-1.809.083-.028.166-.056.222-.111.14.111.251.195.418.278.083.055.167.055.25.055.194 0 .39-.111.501-.306a.573.573 0 0 0-.223-.751c-.724-.389-1.253-1.474-1.253-2.587 0-.946.751-1.697 1.697-1.697.307 0 .557.056.808.195.083.027.139.055.222.055a4.204 4.204 0 0 0-.222 1.335c0 1.587.528 3.145 1.363 4.23-1.67.417-3.144.974-4.118 2.504H1.18zm27.102 10.964a.492.492 0 0 1-.362.167H6.521c-.194 0-.306-.112-.361-.167a.507.507 0 0 1-.083-.39l1.168-4.063a5.685 5.685 0 0 1 4.035-3.923l.334-.083c.083-.028.223.028.306.111 1.53 1.753 3.423 1.892 5.26 1.892 1.836 0 3.729-.139 5.259-1.892a.358.358 0 0 1 .334-.111l.334.083a5.731 5.731 0 0 1 4.034 3.923l.501 1.726a.452.452 0 0 0 .111.195l.612 2.115a.548.548 0 0 1-.083.417zm0 0"/>
</symbol><symbol id="icon-check" viewBox="0 0 17.6 13.4">
    <title/>
    <path d="M5.6 10.6L1.4 6.4 0 7.8l5.6 5.6 12-12L16.2 0 5.6 10.6z"/>
</symbol><symbol id="icon-coins" viewBox="-49 173 512 480">
    <path d="M287 173c-85.312 0-176 28.032-176 80v64c0 8.832 7.168 16 16 16s16-7.168 16-16v-16.672C176.952 321.736 233.016 333 287 333s110.048-11.264 144-32.672V317c0 15.648-39.36 40.608-113.344 46.784-8.768.704-15.328 8.48-14.592 17.28.672 8.352 7.68 14.656 15.904 14.656.48 0 .896-.032 1.376-.064 41.664-3.488 83.168-14.272 110.656-31.776V381c0 13.664-28.992 33.312-82.784 42.816-8.672 1.536-14.496 9.856-12.96 18.528 1.376 7.744 8.128 13.216 15.712 13.216.928 0 1.888-.064 2.816-.256 32.544-5.728 58.592-15.104 77.216-27.008V445c0 13.664-28.992 33.312-82.784 42.816-8.672 1.536-14.496 9.856-12.96 18.528 1.376 7.744 8.128 13.216 15.712 13.216.928 0 1.888-.064 2.816-.256 32.544-5.728 58.592-15.136 77.216-27.008V509c0 13.664-28.992 33.312-82.784 42.816-8.672 1.536-14.496 9.856-12.96 18.528 1.376 7.744 8.128 13.216 15.712 13.216.928 0 1.888-.064 2.816-.256 32.544-5.728 58.592-15.136 77.216-27.008V573c0 15.648-39.36 40.608-113.344 46.784-8.768.704-15.328 8.48-14.592 17.28.672 8.352 7.68 14.656 15.904 14.656.48 0 .896-.032 1.376-.064C391.352 645.704 463 619.112 463 573V253c0-51.968-90.688-80-176-80zm0 128c-87.904 0-144-28.448-144-48s56.096-48 144-48 144 28.448 144 48-56.096 48-144 48z"/>
    <path d="M127 653c85.312 0 176-28.032 176-80V445c0-51.968-90.688-80-176-80s-176 28.032-176 80v128c0 51.968 90.688 80 176 80zm144-144c0 19.552-56.096 48-144 48s-144-28.448-144-48v-16.672C16.952 513.736 73.016 525 127 525s110.048-11.264 144-32.672V509zM127 621c-87.904 0-144-28.448-144-48v-16.672C16.952 577.736 73.016 589 127 589s110.048-11.264 144-32.672V573c0 19.552-56.096 48-144 48zm0-224c87.904 0 144 28.448 144 48s-56.096 48-144 48-144-28.448-144-48 56.096-48 144-48z"/>
</symbol><symbol id="icon-deposit" viewBox="-31.856 158.109 478.856 462.891">
    <path d="M375 347.856a6.848 6.848 0 0 0 6.856-6.84V317a6.848 6.848 0 0 0-6.84-6.856H-25a6.848 6.848 0 0 0-6.856 6.84V509a6.848 6.848 0 0 0 6.84 6.856H247a6.857 6.857 0 0 0 0-13.712H-18.144V323.856h386.288V341a6.848 6.848 0 0 0 6.84 6.856H375z"/>
    <path d="M3.328 207.208a6.897 6.897 0 0 0-3.024 4.304l-16 72a6.86 6.86 0 0 0 13.392 2.976L12.2 221.2l313.296 70.488a6.857 6.857 0 0 0 3.008-13.376l-320-72a6.885 6.885 0 0 0-5.176.896z"/>
    <path d="M85.152 200.072L98.28 173.8l186.072 77.528a6.874 6.874 0 1 0 5.296-12.688l-192-80a6.88 6.88 0 0 0-8.8 3.272l-16 32c-1.807 3.342-.563 7.517 2.78 9.324a6.88 6.88 0 0 0 9.524-3.181v.017z"/>
    <path d="M301.352 349a6.857 6.857 0 0 0-6.856-6.856H231a6.857 6.857 0 0 0 0 13.712h63.496a6.857 6.857 0 0 0 6.856-6.856z"/>
    <path d="M167 483.4c38.881 0 70.4-31.519 70.4-70.4 0-38.881-31.519-70.4-70.4-70.4S96.6 374.119 96.6 413c.04 38.864 31.536 70.36 70.4 70.4zm0-128c31.812 0 57.6 25.788 57.6 57.6s-25.788 57.6-57.6 57.6-57.6-25.788-57.6-57.6c.035-31.797 25.803-57.565 57.6-57.6z"/>
    <path d="M359 365c-42.4 0-88 10.016-88 32v192c0 21.984 45.6 32 88 32s88-10.016 88-32V397c0-21.984-45.6-32-88-32zm72 191.88c-1.208 4.44-25.2 16.12-72 16.12s-70.792-11.68-72-16v-12.576C304.024 553 332.144 557 359 557s54.984-4.04 72-12.584v12.464zm0-32c-1.208 4.44-25.2 16.12-72 16.12s-70.792-11.68-72-16v-12.576C304.024 521 332.144 525 359 525s54.984-4.04 72-12.584v12.464zm0-32c-1.208 4.44-25.2 16.12-72 16.12s-70.792-11.68-72-16v-12.576C304.024 489 332.144 493 359 493s54.984-4.04 72-12.584v12.464zm0-32c-1.208 4.44-25.2 16.12-72 16.12s-70.792-11.68-72-16v-12.576C304.024 456.96 332.144 461 359 461s54.984-4.04 72-12.584v12.464zm0-32c-1.208 4.44-25.2 16.12-72 16.12s-70.792-11.68-72-16v-12.576C304.024 424.96 332.144 429 359 429s54.984-4.04 72-12.584v12.464zM359 381c46.4 0 70.4 11.472 72 16-1.6 4.528-25.6 16-72 16-46.728 0-70.712-11.648-72-15.856v-.048C288.288 392.64 312.272 381 359 381zm0 224c-46.8 0-70.792-11.68-72-16v-12.576C304.024 585 332.144 589 359 589s54.984-4.04 72-12.584v12.464c-1.208 4.44-25.2 16.12-72 16.12z"/>
    <path d="M45.52 355.856H103a6.857 6.857 0 0 0 0-13.712H42.736a6.863 6.863 0 0 0-4.8 1.944L2.2 378.944a8.594 8.594 0 0 0-2.064 5.6v56.896a6.86 6.86 0 0 0 1.792 4.624l32.504 35.552a6.855 6.855 0 0 0 5.064 2.232H103a6.857 6.857 0 0 0 0-13.712H42.528l-28.672-31.36v-52l31.664-30.92z"/>
    <path d="M171 425h-20a8 8 0 0 0 0 16h8a8 8 0 0 0 16 0v-.36a18.624 18.624 0 0 0 16-17.6c-.573-10.489-9.507-18.548-20-18.04h-8c-2.488 0-4-1.392-4-2s1.512-2 4-2h20a8 8 0 0 0 0-16h-8a8 8 0 0 0-16 0v.36a18.624 18.624 0 0 0-16 17.6c.573 10.489 9.507 18.548 20 18.04h8c2.488 0 4 1.392 4 2s-1.512 2-4 2z"/>
</symbol><symbol id="icon-edit" viewBox="0 0 26.273 26.273">
    
    <clipPath id="b">
        <use xlink:href="#a" overflow="visible"/>
    </clipPath>
    <path clip-path="url(#b)" d="M5.037 24.524l1.341.555c.157-.263.317-.535.476-.81a1.1 1.1 0 0 1 1.089-.545 6.152 6.152 0 0 0 1.522 0c.438-.054.866.16 1.089.545.155.271.315.543.475.809l1.341-.555a61.601 61.601 0 0 0-.236-.908 1.097 1.097 0 0 1 .385-1.155 6.22 6.22 0 0 0 1.075-1.076 1.1 1.1 0 0 1 1.156-.385c.303.081.608.161.908.236l.555-1.34a52.155 52.155 0 0 0-.809-.475c-.386-.222-.6-.65-.545-1.09a6.144 6.144 0 0 0 0-1.521 1.098 1.098 0 0 1 .545-1.089c.273-.157.545-.317.809-.475l-.555-1.34c-.299.075-.605.154-.908.236a1.098 1.098 0 0 1-1.155-.384 6.156 6.156 0 0 0-1.076-1.076 1.097 1.097 0 0 1-.385-1.155c.081-.304.161-.609.236-.909l-1.341-.555c-.159.265-.318.537-.476.81-.222.385-.649.6-1.089.544a6.152 6.152 0 0 0-1.522 0 1.1 1.1 0 0 1-1.089-.545 46.703 46.703 0 0 0-.475-.809l-1.341.555c.075.3.154.605.236.908.116.43-.035.883-.385 1.155a6.15 6.15 0 0 0-1.075 1.076 1.1 1.1 0 0 1-1.156.385 47.066 47.066 0 0 0-.908-.236l-.555 1.34c.265.159.537.319.809.476.386.222.6.65.545 1.089a6.152 6.152 0 0 0 0 1.522c.055.439-.159.867-.545 1.088-.272.157-.544.316-.809.475l.555 1.341c.299-.075.604-.154.908-.236.43-.116.883.035 1.155.385a6.19 6.19 0 0 0 1.076 1.076c.35.273.501.726.385 1.156-.082.303-.161.609-.236.907zm1.367 1.749c-.141 0-.282-.027-.418-.083l-1.458-.604a1.107 1.107 0 0 1-.648-1.282c.078-.312.16-.63.246-.948a7.355 7.355 0 0 1-1.21-1.208c-.317.086-.636.167-.946.245a1.108 1.108 0 0 1-1.283-.648l-.603-1.458a1.107 1.107 0 0 1 .448-1.365c.275-.166.559-.332.843-.496a7.354 7.354 0 0 1 .001-1.71 72.457 72.457 0 0 1-.844-.496 1.107 1.107 0 0 1-.448-1.365l.603-1.458c.207-.5.759-.779 1.283-.648.311.078.629.16.947.245a7.394 7.394 0 0 1 1.209-1.209 47.365 47.365 0 0 1-.246-.947 1.109 1.109 0 0 1 .648-1.283l1.458-.605a1.107 1.107 0 0 1 1.365.449c.165.274.332.558.497.843a7.4 7.4 0 0 1 1.709 0c.164-.284.331-.568.496-.843a1.109 1.109 0 0 1 1.366-.449l1.458.604c.5.207.778.759.647 1.283-.077.312-.159.63-.245.947.449.354.855.76 1.209 1.209.317-.085.636-.167.947-.245a1.11 1.11 0 0 1 1.283.648l.604 1.458c.207.5.015 1.087-.448 1.365-.275.166-.559.332-.843.496a7.354 7.354 0 0 1-.001 1.71c.284.163.567.33.844.496.463.278.655.865.448 1.365l-.604 1.458c-.208.5-.759.779-1.283.648-.311-.078-.63-.16-.947-.245a7.388 7.388 0 0 1-1.208 1.209c.085.319.168.638.245.947a1.107 1.107 0 0 1-.648 1.282l-1.457.605a1.107 1.107 0 0 1-1.365-.448c-.167-.277-.333-.56-.497-.843a7.4 7.4 0 0 1-1.709 0c-.165.286-.332.569-.496.843a1.109 1.109 0 0 1-.949.531z"/>
    <path d="M8.699 14.738a2.835 2.835 0 0 0-1.08 5.449 2.819 2.819 0 0 0 2.168 0 2.835 2.835 0 0 0 1.532-3.7 2.836 2.836 0 0 0-2.62-1.749zm.004 6.842a4 4 0 0 1-1.534-.307A3.984 3.984 0 0 1 5 19.104a4.013 4.013 0 0 1 2.169-5.237 4.013 4.013 0 0 1 5.237 2.17 4.013 4.013 0 0 1-3.703 5.543z"/>
    <path d="M19.184 12.232h.828c.026-.184.053-.373.077-.561a.928.928 0 0 1 .675-.778c.346-.095.68-.233.991-.411a.931.931 0 0 1 1.028.073l.451.342.586-.585a54.27 54.27 0 0 0-.343-.452.929.929 0 0 1-.072-1.028 4.41 4.41 0 0 0 .411-.992.928.928 0 0 1 .777-.675c.19-.024.377-.05.562-.077v-.827a40.214 40.214 0 0 0-.562-.078.924.924 0 0 1-.777-.675 4.43 4.43 0 0 0-.411-.992.93.93 0 0 1 .072-1.028c.116-.15.231-.302.343-.452l-.586-.585-.451.342a.93.93 0 0 1-1.028.073 4.313 4.313 0 0 0-.991-.411.93.93 0 0 1-.675-.778c-.024-.189-.051-.377-.077-.561h-.828c-.026.185-.053.373-.077.561a.928.928 0 0 1-.675.778c-.346.095-.68.233-.992.411a.928.928 0 0 1-1.027-.073c-.15-.115-.302-.23-.452-.342l-.585.585c.111.149.227.301.343.452.23.298.258.702.072 1.028a4.365 4.365 0 0 0-.411.992.928.928 0 0 1-.778.675c-.188.025-.376.051-.561.078v.827c.185.027.372.053.561.078a.927.927 0 0 1 .778.675c.096.346.233.679.411.992a.93.93 0 0 1-.072 1.028c-.116.15-.231.302-.343.452l.585.585c.15-.112.302-.227.452-.342a.928.928 0 0 1 1.027-.073c.313.177.646.315.992.411a.93.93 0 0 1 .675.778l.077.56zm.988 1.118h-1.146a.938.938 0 0 1-.922-.792c-.03-.203-.061-.412-.088-.622a5.515 5.515 0 0 1-1.018-.421c-.167.128-.336.254-.501.377a.94.94 0 0 1-1.213-.091l-.811-.811a.937.937 0 0 1-.092-1.212c.122-.165.249-.334.378-.502a5.441 5.441 0 0 1-.422-1.017c-.21-.028-.419-.057-.621-.088a.937.937 0 0 1-.793-.921V6.101c0-.457.341-.854.793-.921.202-.031.411-.06.621-.088.105-.352.247-.693.422-1.017a29.99 29.99 0 0 1-.378-.502.937.937 0 0 1 .092-1.212l.811-.811a.937.937 0 0 1 1.213-.091c.166.123.334.25.501.377a5.486 5.486 0 0 1 1.018-.421c.028-.21.058-.418.088-.622A.936.936 0 0 1 19.025 0h1.146c.458 0 .854.341.922.792.03.203.06.412.088.622.353.106.693.247 1.018.421.167-.128.336-.254.501-.377a.94.94 0 0 1 1.213.091l.81.811a.937.937 0 0 1 .092 1.212c-.122.165-.249.333-.378.502.175.324.316.665.422 1.017.21.028.419.057.621.088a.937.937 0 0 1 .793.921v1.148a.937.937 0 0 1-.793.921c-.203.031-.411.06-.621.088a5.375 5.375 0 0 1-.422 1.017c.129.168.255.336.378.502a.937.937 0 0 1-.092 1.212l-.81.811a.937.937 0 0 1-1.213.091 46.969 46.969 0 0 1-.502-.377 5.41 5.41 0 0 1-1.017.421c-.028.21-.058.418-.088.622a.936.936 0 0 1-.921.794z"/>
    <path d="M19.599 5.352a1.323 1.323 0 1 0 .002 2.646 1.323 1.323 0 0 0-.002-2.646zm0 3.704c-1.313 0-2.381-1.068-2.381-2.381s1.068-2.381 2.381-2.381 2.381 1.068 2.381 2.381-1.069 2.381-2.381 2.381z"/>
</symbol><symbol id="icon-facebook" viewBox="0 0 10 19">
    <title>
        facebook
    </title>
    <path d="M9.766.157v2.946H8.014c-.64 0-1.071.134-1.295.402-.223.268-.335.67-.335 1.205v2.11h3.27l-.435 3.303H6.384v8.471H2.97v-8.47H.123V6.82H2.97V4.387c0-1.384.387-2.457 1.161-3.22C4.904.404 5.934.023 7.222.023c1.093 0 1.941.045 2.544.134z" fill-rule="evenodd"/>
</symbol><symbol id="icon-funds" viewBox="0 0 29.4 25.8">
    <path d="M17.5 12.2h-1.9c-.8 0-1.4-.6-1.4-1.4 0-.8.6-1.4 1.4-1.4H19c.4 0 .7-.3.7-.7-.1-.4-.4-.7-.7-.7h-1.8V6.7c0-.4-.3-.7-.7-.7-.4 0-.7.3-.7.7V8h-.3c-1.5 0-2.8 1.2-2.8 2.8 0 1.5 1.2 2.8 2.8 2.8h1.9c.8 0 1.4.6 1.4 1.4 0 .8-.6 1.4-1.4 1.4H14c-.4 0-.7.3-.7.7 0 .4.3.7.7.7h1.8v1.4c0 .4.3.7.7.7s.7-.3.7-.7v-1.4h.3c1.5 0 2.7-1.3 2.7-2.8.1-1.5-1.2-2.8-2.7-2.8zm0 0"/>
    <path d="M25.7 3.8C23.2 1.3 20 0 16.5 0c-3.4 0-6.7 1.3-9.1 3.8-.9.9-1.7 2-2.3 3.1.5 0 .9.2 1.3.4 2-3.5 5.8-5.9 10.1-5.9 6.4 0 11.6 5.2 11.6 11.6 0 6.4-5.2 11.6-11.6 11.6-1.9 0-3.6-.5-5.2-1.2-.2.4-.5.8-.8 1.1 1.8 1 3.9 1.5 6 1.5 3.4 0 6.7-1.3 9.1-3.8 2.4-2.4 3.8-5.7 3.8-9.1 0-3.7-1.3-6.9-3.7-9.3z"/>
    <path d="M4.9 24.4c-.4 0-.8-.3-.8-.8V11c0-.4.3-.8.8-.8s.8.3.8.8v12.7c-.1.4-.4.7-.8.7z"/>
    <path d="M4.8 25.7c-.2 0-.4-.1-.6-.3L.1 20.6c-.3-.3-.2-.8.1-1.1.3-.3.8-.2 1.1.1l3.5 4.1 3.7-4.5c.3-.3.7-.4 1.1-.1.3.3.4.7.1 1.1l-4.2 5.2c-.2.2-.4.3-.7.3z"/>
</symbol><symbol id="icon-history" viewBox="0 0 27.2 25.7">
    <path d="M3.9 14.2c-.3 0-.5-.2-.5-.5s.2-.5.5-.5h12.6c.3 0 .5.2.5.5s-.2.5-.5.5H3.9z"/>
    <path d="M9.5 11.2c-.3 0-.5-.2-.5-.5s.2-.5.5-.5h7c.3 0 .5.2.5.5s-.2.5-.5.5h-7z"/>
    <path d="M3.2 25.4c-1.6 0-2.9-1.3-2.9-2.9V3.2C.3 1.6 1.6.3 3.2.3h10.4c.1 0 .3 0 .4.1.1.1.3.1.4.2l5.4 5.2c.1.1.2.3.2.4.1.1.1.3.1.4v2c0 .1-.9 1.5-.9 1.5V6.8h-2.9c-1.6 0-2.9-1.3-2.9-2.9V1.2H3.2c-1.1 0-2 .9-2 2v19.3c0 1.1.9 2 2 2h14.1c1 0 1.8-.7 1.9-1.7v-2l.9-1.2v2.9c0 1.6-1.3 2.9-2.9 2.9h-14z"/>
    <path d="M5.3 4.9c-.7.3-1.1.8-1.2 1.5 0 .7.3 1.1.9 1.4.3.2.7.3 1.1.5.1.1.3.1.4.2.3.3.3.7-.1.9-.3.1-.5.1-.7.1-.4 0-.7-.1-1-.3-.3-.1-.3 0-.4.2 0 .2-.1.4-.1.5-.1.2 0 .3.2.4l.9.3c.3 0 .3 0 .3.3v.4c0 .2.1.2.2.2h.5c.1 0 .2-.1.2-.2v-.5c0-.2.1-.2.2-.3.4-.1.7-.3.9-.6.7-.9.4-2-.5-2.5-.3-.2-.6-.3-.9-.5-.2 0-.4-.1-.5-.2-.3-.3-.3-.6.1-.8.1 0 .2-.1.3-.1.4 0 .8 0 1.2.2.2.1.2.1.3-.1.1-.2.1-.4.2-.6 0-.1 0-.2-.1-.3-.4-.1-.6-.2-.9-.2-.3 0-.3-.1-.3-.4 0-.4 0-.4-.5-.4h-.2c-.2 0-.3 0-.3.2v.3c0 .3 0 .3-.2.4zm0 0"/>
    <path d="M3.9 17.2c-.3 0-.5-.2-.5-.5s.2-.5.5-.5h11.9c-.1.1-.4.8-.4.9H3.9z"/>
    
    <clipPath id="b">
        <use xlink:href="#a" overflow="visible"/>
    </clipPath>
    <path clip-path="url(#b)" d="M3.9 20.2c-.3 0-.5-.2-.5-.5s.2-.5.5-.5h10.5l-.3.9H3.9z"/>
    <path clip-path="url(#b)" d="M15.5 22V21.7c0-.1 0-.3.1-.4v-.1c.4-1.3 1-2.5 1.5-3.7.8-1.7 1.8-3.5 2.9-5.4l1-1.6.5-.8c.6-1 1.2-2 1.9-3 .2-.3.5-.6.8-.9.2-.2.4-.3.6-.3.2 0 .3.1.5.2.6.3.6.7.6 1.1 0 .1-.1.3-.1.3-.1.2-.2.5-.3.7V8l1.3.8c.1.1.2.2.1.4l-3.6 6.1c-.1 0-.2-.1-.2-.2-.1-.1 0-.3 0-.4l3.3-5.6-1.1-.7-.4.8-.9 1.5c-.2.4-.5.8-.7 1.2l-1.2 1.9c-1.4 2.1-3 4.6-5 6.9l-1.2 1.2c-.2 0-.3.1-.4.1.1 0 0 0 0 0z"/>
</symbol><symbol id="icon-lock" viewBox="0 0 363.4 436.1">
    <path d="M63.6 118.1v63.6H36.3C16.3 181.7 0 198 0 218v181.7C0 419.8 16.3 436 36.3 436H327c20.1 0 36.3-16.3 36.3-36.3V218c0-20.1-16.3-36.3-36.3-36.3h-27.3v-63.6C299.8 52.9 246.9 0 181.7 0S63.6 52.9 63.6 118.1zm45.4 63.6v-63.6c0-40.2 32.5-72.7 72.7-72.7s72.7 32.5 72.7 72.7v63.6H109zm36.4 99.9c0-20.1 16.3-36.3 36.3-36.3s36.3 16.3 36.3 36.3c0 12.8-6.6 24.1-16.6 30.5 0 0 3.5 21.4 7.5 46.7 0 7.5-6.1 13.6-13.6 13.6H168c-7.5 0-13.6-6.1-13.6-13.6l7.5-46.7c-9.9-6.4-16.5-17.6-16.5-30.5z"/>
</symbol><symbol id="icon-logout" viewBox="0 0 24.219 26.146">
    
    <clipPath id="b">
        <use xlink:href="#a" overflow="visible"/>
    </clipPath>
    <path clip-path="url(#b)" d="M11.649 24.584H4.845a3.354 3.354 0 0 1-3.35-3.35v-16.4a3.355 3.355 0 0 1 3.35-3.35h6.916a.744.744 0 0 0 .747-.748.744.744 0 0 0-.747-.748H4.845A4.851 4.851 0 0 0 0 4.834v16.4a4.85 4.85 0 0 0 4.845 4.845h6.805a.745.745 0 0 0 .748-.748.75.75 0 0 0-.749-.747zm0 0"/>
    <path clip-path="url(#b)" d="M23.964 12.508l-4.751-4.751a.747.747 0 0 0-1.058 0 .747.747 0 0 0 0 1.058l3.477 3.477H6.467a.744.744 0 0 0-.747.747c0 .415.332.748.747.748h15.166l-3.477 3.478a.745.745 0 0 0 0 1.057.753.753 0 0 0 .526.222.727.727 0 0 0 .526-.222l4.75-4.751a.747.747 0 0 0 .006-1.063zm0 0"/>
</symbol><symbol id="icon-plane" viewBox="0 0 32 32">
    <path d="M31.5.2c-.1-.1-.3-.2-.5-.2s-.4.1-.6.2l-30 20c-.3.2-.4.5-.4.9s.3.7.6.8L8.4 25l3.7 6.4c.2.3.5.5.9.5s.7-.2.9-.5l2.1-3.5 9.7 3.9c.1 0 .2.1.4.1s.3 0 .5-.1c.3-.1.4-.4.5-.7l5-30c0-.3-.2-.7-.6-.9zM3.1 20.8L26.3 5.3l-16.9 18c-.1-.1-.2-.1-.3-.2l-6-2.3zm7.1 3.3L29.1 3.8 13 28.9l-2.8-4.8zm15 5.5l-8.5-3.4c-.2-.1-.4-.1-.6-.1L29.2 5.7l-4 23.9z"/>
</symbol><symbol id="icon-promotion" viewBox="0 0 25.826 26.106">
    
    <clipPath id="b">
        <use xlink:href="#a" overflow="visible"/>
    </clipPath>
    <path clip-path="url(#b)" d="M25.758 12.115h-1.249V6.372a2.5 2.5 0 0 0-2.496-2.497h-1.691L18.593.764a1.498 1.498 0 0 0-2.038-.582l-6.64 3.693H2.497A2.5 2.5 0 0 0 0 6.372v17.144a2.5 2.5 0 0 0 2.497 2.497h19.516a2.499 2.499 0 0 0 2.496-2.497v-5.035h1.249v-6.366zm-3.745-7.241c.769 0 1.396.584 1.481 1.332h-1.876l-.74-1.332h1.135zM17.04 1.056a.51.51 0 0 1 .679.194l2.756 4.956H7.778l9.262-5.15zm6.471 22.46a1.5 1.5 0 0 1-1.498 1.498H2.497a1.5 1.5 0 0 1-1.499-1.498V6.372a1.5 1.5 0 0 1 1.499-1.498h5.621L5.724 6.206H2.809a.498.498 0 1 0 0 .998h20.702v4.911h-3.652a3.08 3.08 0 0 0-3.075 3.076v.214a3.08 3.08 0 0 0 3.075 3.076h3.652v5.035zm1.248-6.034h-4.9a2.079 2.079 0 0 1-2.077-2.077v-.215c0-1.146.932-2.077 2.077-2.077h4.9v4.369zm-3.371-2.143a1.102 1.102 0 1 1-2.205.001 1.102 1.102 0 0 1 2.205-.001zm0 0"/>
</symbol><symbol id="icon-refferals" viewBox="0 0 48 44">
    <path d="M44.012 34.312l-7.645-3.82a2.11 2.11 0 0 1-1.168-1.894v-2.703c.184-.227.375-.481.574-.762a18.112 18.112 0 0 0 2.364-4.641A3.17 3.17 0 0 0 40 17.602v-3.204c0-.769-.289-1.515-.801-2.097V8.043c.047-.438.223-3.059-1.672-5.219C35.883.949 33.219 0 29.602 0c-3.618 0-6.286.949-7.93 2.824-1.145 1.309-1.531 2.785-1.649 3.844-1.371-.707-2.988-1.066-4.824-1.066-8.308 0-8.793 7.082-8.801 7.199v3.664c-.515.562-.796 1.215-.796 1.863v2.762c0 .863.386 1.668 1.046 2.211.661 2.488 2.286 4.371 2.914 5.031v2.191c0 .633-.339 1.207-.933 1.536l-5.324 3.336A6.34 6.34 0 0 0 0 40.961V44h48v-3.234a7.176 7.176 0 0 0-3.988-6.454zm-32.813 6.297v1.789H1.602v-1.437c0-1.734.945-3.328 2.511-4.184l5.321-3.339a3.318 3.318 0 0 0 1.73-2.915v-2.871l-.254-.238c-.023-.019-2.148-2.027-2.777-4.762l-.071-.32-.273-.176a1.273 1.273 0 0 1-.59-1.066v-2.762c0-.289.196-.633.539-.941L8 17.152v-4.304c.012-.231.43-5.649 7.199-5.649 1.914 0 3.528.442 4.801 1.317v3.785a3.184 3.184 0 0 0-.801 2.097v3.204c0 .242.028.48.082.71.02.094.063.18.094.27.043.133.078.273.141.398a3.192 3.192 0 0 0 .882 1.106 14.236 14.236 0 0 0 .164.59l.067.207.035.113c.027.086.055.172.086.254.047.141.098.285.156.445.024.063.051.125.078.188.063.168.129.328.2.488.015.039.031.082.046.117l.047.102c.02.047.043.09.063.133.078.172.156.339.234.5l.039.078c.051.097.098.195.149.289.086.164.172.32.258.472.042.071.082.145.121.215.117.196.226.375.332.543.023.039.047.075.07.11.191.3.359.543.5.734.035.047.066.094.098.133.019.023.043.058.058.078v2.648c0 .774-.422 1.485-1.101 1.856l-2.118 1.156-.367-.035-.152.316-4.5 2.457a7.213 7.213 0 0 0-3.762 6.336zm35.199 1.789H12.801v-1.789a5.613 5.613 0 0 1 2.926-4.929l7.136-3.895a3.713 3.713 0 0 0 1.938-3.262v-3.214l-.156-.184-.032-.039-.133-.168-.011-.02a4.284 4.284 0 0 1-.149-.199c-.004 0-.004-.004-.004-.004a14.546 14.546 0 0 1-.437-.64c-.004-.004-.004-.012-.008-.016-.078-.125-.164-.258-.246-.398-.008-.012-.016-.02-.02-.032a15.675 15.675 0 0 1-.566-1.027v-.004a15.434 15.434 0 0 1-.301-.64c-.015-.032-.031-.063-.043-.094-.043-.098-.09-.203-.133-.313l-.046-.117a14.57 14.57 0 0 1-.364-1.012l-.043-.14c-.004-.02-.011-.035-.015-.051a11.785 11.785 0 0 1-.207-.777l-.075-.317-.273-.176c-.461-.3-.738-.8-.738-1.339v-3.204c0-.445.191-.867.535-1.179l.266-.239V7.719l-.024-.02c-.027-.578.008-2.347 1.297-3.82 1.328-1.512 3.59-2.277 6.727-2.277 3.121 0 5.378.757 6.707 2.261 1.558 1.762 1.3 4.012 1.296 4.032l-.003 5.085.261.243c.348.308.535.73.535 1.175v3.204c0 .695-.457 1.308-1.136 1.519l-.399.121-.129.395a16.748 16.748 0 0 1-2.265 4.57c-.239.336-.469.637-.668.863l-.199.227v3.301c0 1.418.785 2.691 2.05 3.324l7.645 3.82a5.585 5.585 0 0 1 3.101 5.024v1.632zm0 0"/>
</symbol><symbol id="icon-withdraw-status" viewBox="-49 141 512 512">
    <path d="M463 221v116c0 11.046-8.954 20-20 20s-20-8.954-20-20V221c0-22.056-17.944-40-40-40H31c-22.056 0-40 17.944-40 40v216c0 22.056 17.944 40 40 40h96c11.046 0 20 8.954 20 20s-8.954 20-20 20H31c-44.112 0-80-35.888-80-80V221c0-44.112 35.888-80 80-80h352c44.112 0 80 35.888 80 80zm-20 196c-11.046 0-20 8.954-20 20 0 22.056-17.944 40-40 40h-96c-11.046 0-20 8.954-20 20s8.954 20 20 20h96c44.112 0 80-35.888 80-80 0-11.046-8.954-20-20-20zm-57-89c0-11.046-8.954-20-20-20s-20 8.954-20 20 8.954 20 20 20 20-8.954 20-20zm-358 0c0 11.046 8.954 20 20 20s20-8.954 20-20-8.954-20-20-20-20 8.954-20 20zm235.942 237.774L227 602.28V417c0-11.046-8.954-20-20-20s-20 8.954-20 20v183.303l-34.942-34.529c-7.857-7.764-20.52-7.688-28.284.168-7.764 7.857-7.688 20.52.168 28.284l41.589 41.098C176.878 646.724 191.955 653 208 653s31.122-6.276 42.469-17.676l41.589-41.098c7.856-7.764 7.932-20.427.168-28.284-7.765-7.857-20.427-7.933-28.284-.168zm-1.77-170.959a19.898 19.898 0 0 0 10.809 3.187c6.573 0 13.011-3.237 16.834-9.174C301.712 370.354 308 349.277 308 327.878c0-59.551-45.309-108-101-108s-101 48.449-101 108c0 22.906 5.798 43.438 17.233 61.024 6.021 9.26 18.41 11.886 27.669 5.865 9.26-6.021 11.886-18.409 5.865-27.669-7.144-10.989-10.767-24.183-10.767-39.22 0-37.495 27.364-68 61-68s61 30.505 61 68c0 13.702-4.085 27.29-11.815 39.293-5.98 9.288-3.3 21.664 5.987 27.644z"/>
</symbol><symbol id="icon-withdraw" viewBox="0 0 29.431 25.784">
    <path d="M17.498 12.206h-1.914a1.444 1.444 0 0 1-1.443-1.443c0-.795.648-1.442 1.443-1.442h3.379a.66.66 0 0 0 .658-.659.66.66 0 0 0-.658-.658h-1.761V6.66a.66.66 0 0 0-.658-.658.66.66 0 0 0-.658.658v1.344h-.302c-1.52 0-2.76 1.24-2.76 2.759 0 1.52 1.24 2.76 2.76 2.76h1.914c.796 0 1.443.647 1.443 1.443 0 .795-.648 1.442-1.443 1.442h-3.439a.66.66 0 0 0-.658.659.66.66 0 0 0 .658.658h1.821v1.371a.66.66 0 0 0 .658.659.66.66 0 0 0 .658-.659v-1.371h.335a2.764 2.764 0 0 0 2.721-2.759 2.757 2.757 0 0 0-2.754-2.76zm0 0"/>
    <path d="M25.656 22.009a12.807 12.807 0 0 1-9.118 3.774 12.803 12.803 0 0 1-9.117-3.774 12.843 12.843 0 0 1-2.268-3.101c.494-.041.93-.163 1.304-.359 1.986 3.525 5.757 5.918 10.081 5.918 6.38 0 11.575-5.195 11.575-11.575 0-6.38-5.195-11.576-11.575-11.576-1.861 0-3.616.453-5.176 1.238a3.663 3.663 0 0 0-.848-1.067A12.85 12.85 0 0 1 16.538 0c3.445 0 6.682 1.338 9.118 3.774a12.804 12.804 0 0 1 3.774 9.118 12.797 12.797 0 0 1-3.774 9.117z"/>
    <path d="M4.884 16.628a.75.75 0 0 1-.75-.75V3.156a.75.75 0 0 1 1.5 0v12.722a.75.75 0 0 1-.75.75z"/>
    <path d="M9.179 7.067a.752.752 0 0 1-.55-.24L4.918 2.832 1.306 6.82A.75.75 0 0 1 .194 5.813l4.161-4.595a.752.752 0 0 1 .551-.247.723.723 0 0 1 .555.24l4.268 4.595a.752.752 0 0 1-.55 1.261z"/>
</symbol></svg>