<?xml version="1.0" encoding="UTF-8"?><!DOCTYPE svg PUBLIC "-//W3C//DTD SVG 1.1//EN" "http://www.w3.org/Graphics/SVG/1.1/DTD/svg11.dtd"><svg xmlns="http://www.w3.org/2000/svg"><symbol id="icon-facebook" viewBox="0 0 10 19">
    <title>
        facebook
    </title>
    <path d="M9.766.157v2.946H8.014c-.64 0-1.071.134-1.295.402-.223.268-.335.67-.335 1.205v2.11h3.27l-.435 3.303H6.384v8.471H2.97v-8.47H.123V6.82H2.97V4.387c0-1.384.387-2.457 1.161-3.22C4.904.404 5.934.023 7.222.023c1.093 0 1.941.045 2.544.134z" fill-rule="evenodd"/>
</symbol><symbol id="icon-plane" viewBox="0 0 32 32">
    <path d="M31.5.2c-.1-.1-.3-.2-.5-.2s-.4.1-.6.2l-30 20c-.3.2-.4.5-.4.9s.3.7.6.8L8.4 25l3.7 6.4c.2.3.5.5.9.5s.7-.2.9-.5l2.1-3.5 9.7 3.9c.1 0 .2.1.4.1s.3 0 .5-.1c.3-.1.4-.4.5-.7l5-30c0-.3-.2-.7-.6-.9zM3.1 20.8L26.3 5.3l-16.9 18c-.1-.1-.2-.1-.3-.2l-6-2.3zm7.1 3.3L29.1 3.8 13 28.9l-2.8-4.8zm15 5.5l-8.5-3.4c-.2-.1-.4-.1-.6-.1L29.2 5.7l-4 23.9z"/>
</symbol></svg>